<?xml version="1.0" standalone="no"?>
<!DOCTYPE svg PUBLIC "-//W3C//DTD SVG 20010904//EN"
 "http://www.w3.org/TR/2001/REC-SVG-20010904/DTD/svg10.dtd">
<svg version="1.0" xmlns="http://www.w3.org/2000/svg"
 width="493.000000pt" height="506.000000pt" viewBox="0 0 493.000000 506.000000"
 preserveAspectRatio="xMidYMid meet">

<g transform="translate(0.000000,506.000000) scale(0.100000,-0.100000)"
fill="#000000" stroke="none">
<path d="M2105 4970 c-591 -90 -1100 -371 -1499 -826 -248 -283 -437 -648
-525 -1017 -58 -242 -66 -311 -66 -587 0 -197 4 -280 18 -365 86 -523 308
-974 664 -1346 389 -405 942 -678 1495 -738 139 -15 444 -13 578 3 296 37 600
133 848 268 716 388 1189 1074 1288 1868 16 132 18 453 4 585 -61 546 -313
1068 -703 1456 -386 386 -842 615 -1387 699 -171 27 -540 27 -715 0z m707
-160 c516 -83 959 -313 1314 -681 316 -328 522 -734 604 -1189 171 -947 -279
-1911 -1117 -2396 -349 -202 -733 -304 -1143 -304 -354 0 -679 73 -993 224
-670 320 -1144 946 -1273 1681 -26 146 -29 181 -28 395 0 247 14 365 65 565
58 230 172 489 301 685 402 611 1041 987 1773 1044 108 8 379 -5 497 -24z"/>
<path d="M2402 4743 l-34 -4 6 -72 c4 -40 9 -90 12 -112 l4 -40 -19 40 c-23
48 -58 126 -70 157 -8 21 -14 23 -61 19 l-53 -3 7 -112 c3 -61 9 -153 13 -203
l6 -93 47 0 c26 0 49 2 51 4 2 3 1 51 -3 108 -3 57 -5 104 -4 105 1 2 22 -45
47 -103 l44 -106 49 6 c27 3 50 7 52 9 5 4 -16 351 -22 385 -4 22 -6 23 -72
15z"/>
<path d="M2839 4676 c-53 -36 -92 -130 -93 -223 0 -58 4 -78 20 -99 38 -51 71
-69 129 -69 45 0 58 4 84 29 29 28 62 93 75 148 5 23 3 28 -16 33 -92 20 -122
25 -128 18 -11 -12 -21 -73 -12 -73 4 0 14 -4 22 -10 12 -7 12 -12 -4 -29 -61
-67 -86 43 -36 157 21 47 49 56 71 21 13 -18 20 -20 62 -14 53 8 58 21 28 71
-39 64 -138 83 -202 40z"/>
<path d="M1900 4668 c-56 -29 -84 -81 -83 -154 1 -78 29 -151 79 -201 39 -38
49 -43 89 -43 86 0 141 51 152 139 12 105 -43 227 -120 261 -54 25 -63 25
-117 -2z m100 -129 c40 -78 37 -169 -6 -169 -34 0 -84 144 -65 187 17 37 48
29 71 -18z"/>
<path d="M3175 4583 c-74 -176 -135 -324 -135 -328 0 -8 92 -47 97 -42 2 3 17
35 33 73 l29 69 1 -86 0 -86 68 -31 c37 -17 79 -39 94 -48 26 -17 28 -17 47 0
19 18 21 17 50 -4 27 -18 29 -24 20 -42 -12 -22 -11 -24 45 -61 l40 -26 73
192 c40 106 73 194 73 197 0 3 -25 21 -55 39 l-56 34 -36 -34 c-21 -19 -84
-79 -141 -134 -57 -55 -107 -101 -113 -103 -5 -2 -9 25 -9 61 0 36 -3 72 -6
81 -4 11 3 19 22 27 44 16 71 46 84 93 10 37 9 48 -5 77 -10 18 -24 39 -31 46
-14 14 -146 73 -163 73 -6 0 -18 -17 -26 -37z m115 -98 c26 -31 -25 -97 -58
-76 -12 7 21 91 36 91 5 0 15 -7 22 -15z m273 -247 c-19 -40 -36 -74 -37 -75
-1 -2 -11 3 -21 11 -17 13 -15 17 35 75 30 33 55 61 56 61 2 0 -13 -33 -33
-72z"/>
<path d="M1617 4575 c-21 -7 -40 -15 -41 -17 -27 -36 -36 -60 -36 -99 0 -68
30 -107 104 -133 63 -23 76 -37 55 -62 -10 -12 -23 -14 -51 -10 l-38 6 23 -52
c27 -63 44 -68 107 -36 118 60 93 230 -37 253 -47 7 -68 26 -59 51 5 12 16 15
46 12 25 -2 39 0 36 7 -43 107 -40 105 -109 80z"/>
<path d="M1315 4414 c-22 -13 -40 -28 -40 -33 0 -15 199 -340 208 -341 11 0
146 80 153 91 7 12 -24 69 -41 75 -8 3 -24 -1 -37 -10 -12 -9 -26 -16 -29 -16
-4 0 -42 56 -84 125 -42 69 -80 127 -84 129 -3 2 -24 -7 -46 -20z"/>
<path d="M1115 4261 c-22 -12 -62 -40 -89 -64 l-50 -43 100 -119 c54 -65 113
-135 130 -156 l31 -38 42 35 41 36 -32 40 c-68 82 -68 86 -13 54 28 -16 59
-35 71 -43 18 -12 25 -9 67 23 55 43 55 43 -53 88 l-65 27 0 49 c0 44 -4 54
-35 85 -46 46 -90 53 -145 26z m63 -97 c17 -12 22 -24 20 -47 -4 -42 -14 -40
-52 6 -25 32 -28 40 -16 47 20 13 22 13 48 -6z"/>
<path d="M2220 4215 c-261 -40 -517 -142 -730 -292 -199 -141 -417 -388 -519
-591 l-31 -62 67 0 c88 0 111 7 115 34 3 20 10 21 142 28 109 6 152 13 193 30
46 19 57 20 92 10 27 -9 47 -9 66 -2 40 15 104 12 136 -7 16 -10 29 -20 29
-24 0 -3 30 -9 66 -13 65 -7 125 -30 173 -67 13 -11 36 -19 51 -19 30 0 102
-45 126 -78 9 -13 26 -22 42 -22 44 0 98 -44 117 -94 23 -59 14 -102 -32 -155
l-36 -43 41 -82 c60 -116 54 -181 -19 -225 l-28 -17 35 -43 c19 -24 34 -50 34
-57 0 -8 10 -14 24 -14 34 0 47 -21 53 -87 5 -61 -21 -158 -52 -193 -8 -9 -15
-35 -15 -58 0 -81 -34 -130 -115 -168 -59 -28 -132 -31 -176 -8 -17 8 -32 14
-33 12 -1 -2 -12 -19 -24 -38 -85 -142 -263 -192 -377 -105 -43 33 -45 34 -79
20 -42 -18 -173 -20 -226 -4 -21 6 -50 21 -65 33 l-27 22 -57 -19 c-63 -21
-112 -18 -151 11 -34 25 -110 39 -110 20 0 -7 21 -51 46 -98 268 -499 716
-812 1285 -896 137 -20 377 -15 509 11 373 72 674 235 931 502 132 137 271
341 320 469 9 25 9 25 -38 18 -26 -4 -56 -15 -67 -25 -30 -28 -81 -34 -146
-16 l-58 17 -59 -31 c-51 -26 -69 -30 -138 -30 -48 0 -97 6 -124 15 l-44 16
-38 -34 c-95 -87 -273 -44 -363 87 -22 31 -40 57 -42 57 -1 0 -15 -7 -30 -15
-36 -19 -114 -19 -158 -1 -80 33 -149 131 -131 186 4 11 -4 34 -18 57 -35 56
-47 99 -47 167 0 71 18 106 56 106 17 0 24 6 24 19 0 10 14 35 30 56 l30 38
-34 29 c-68 56 -68 110 0 232 l33 59 -36 43 c-40 49 -51 103 -34 156 16 48 60
88 106 95 26 4 47 16 63 35 28 32 81 62 129 71 18 4 51 20 73 36 39 28 113 51
165 51 13 0 41 12 62 26 33 22 45 25 93 20 58 -6 77 -7 150 -4 25 1 59 -6 76
-15 20 -10 71 -18 155 -22 157 -8 169 -10 169 -35 0 -11 6 -20 13 -21 6 0 45
-3 85 -5 39 -3 72 -1 72 3 0 5 -24 51 -54 103 -264 462 -727 770 -1259 840
-105 13 -352 11 -457 -5z m1545 -2459 c33 -14 65 -59 65 -91 0 -10 -7 -32 -16
-51 -30 -63 -128 -69 -169 -10 -33 46 -12 125 39 150 38 19 39 19 81 2z"/>
<path d="M3690 1737 c-14 -7 -31 -25 -38 -41 -40 -82 68 -156 133 -91 42 41
31 105 -22 133 -27 15 -42 15 -73 -1z m66 -63 c0 -22 4 -46 8 -52 4 -7 3 -12
-3 -12 -5 0 -13 9 -16 20 -3 11 -13 20 -21 20 -8 0 -14 -9 -14 -20 0 -11 -4
-20 -10 -20 -11 0 -14 93 -3 104 4 4 19 6 33 4 22 -3 25 -8 26 -44z"/>
<path d="M3710 1690 c0 -15 5 -20 18 -18 9 2 17 10 17 18 0 8 -8 16 -17 18
-13 2 -18 -3 -18 -18z"/>
<path d="M3801 4188 c-42 -15 -127 -97 -146 -142 -19 -46 -19 -119 0 -156 8
-16 32 -41 52 -55 l37 -25 38 37 37 36 -32 21 c-50 34 -49 80 4 140 48 55 120
60 140 9 l10 -26 34 39 c19 22 33 46 32 54 -1 8 -21 27 -43 43 -47 33 -110 42
-163 25z"/>
<path d="M843 4016 c-4 -8 -23 -30 -41 -50 -18 -20 -30 -42 -26 -48 30 -49
237 -323 244 -323 4 0 22 18 39 39 29 36 30 40 15 57 -15 17 -15 20 6 48 25
35 23 35 51 19 18 -12 24 -9 55 26 19 22 34 42 34 46 0 3 -28 20 -62 37 -35
18 -118 62 -185 98 -97 52 -124 62 -130 51z m150 -174 c29 -20 35 -28 26 -38
-18 -21 -23 -18 -75 43 -52 62 -53 62 49 -5z"/>
<path d="M3930 3903 c-80 -69 -146 -128 -148 -132 -1 -4 13 -25 31 -46 l34
-39 74 64 c215 188 229 201 220 218 -13 23 -50 62 -59 62 -4 -1 -72 -57 -152
-127z"/>
<path d="M4110 3804 c-52 -36 -126 -85 -163 -109 l-68 -45 52 -77 c28 -43 55
-82 60 -87 4 -4 23 4 43 19 l36 27 -21 34 c-38 62 5 100 50 45 l26 -31 38 25
38 26 -21 29 c-25 36 -25 47 1 61 18 9 24 8 30 -3 5 -8 17 -25 27 -38 l19 -23
34 23 c19 13 36 25 38 27 7 5 -103 163 -113 163 -6 0 -54 -30 -106 -66z"/>
<path d="M637 3752 c-37 -41 -48 -117 -24 -175 16 -36 79 -97 128 -123 50 -25
137 -29 179 -7 39 20 80 75 80 107 0 13 -14 30 -38 46 -52 35 -52 35 -52 6 0
-31 -32 -66 -60 -66 -30 0 -72 21 -107 54 -39 36 -43 76 -12 107 23 23 22 24
-33 54 -35 19 -41 19 -61 -3z"/>
<path d="M4055 3481 c-39 -16 -60 -51 -60 -98 0 -58 36 -93 96 -93 109 0 138
154 37 189 -36 13 -45 13 -73 2z m79 -22 c52 -24 57 -101 9 -139 -82 -64 -182
52 -108 125 26 27 60 32 99 14z"/>
<path d="M4061 3383 c1 -39 3 -50 8 -34 9 34 29 37 41 7 5 -14 11 -26 13 -26
2 0 3 24 3 53 -1 51 -2 52 -34 55 l-32 3 1 -58z m52 41 c11 -11 -5 -34 -24
-34 -12 0 -19 7 -19 20 0 19 28 28 43 14z"/>
<path d="M1649 3349 c-14 -3 -34 -11 -45 -17 -14 -7 -24 -7 -39 4 -26 19 -59
18 -105 -5 -28 -13 -75 -21 -162 -26 -127 -8 -130 -16 -12 -31 91 -11 49 -24
-84 -25 -140 -2 -388 -14 -331 -17 20 -1 63 -5 96 -8 l60 -7 -20 -52 -19 -52
-81 -7 c-45 -3 -131 -7 -192 -7 l-110 -2 80 -8 c44 -5 127 -12 185 -16 l105
-8 -42 -22 c-22 -13 -43 -27 -45 -32 -3 -10 -297 -31 -451 -32 -154 -1 -72
-17 163 -32 l215 -14 -58 -27 -57 -28 22 -18 23 -18 -45 -6 c-47 -6 -367 -26
-416 -26 -66 0 -6 -11 132 -25 82 -8 192 -19 244 -24 52 -6 101 -11 108 -11 7
0 12 -13 12 -29 0 -27 -3 -29 -47 -35 -27 -3 -131 -9 -233 -13 -102 -4 -176
-8 -165 -10 22 -3 408 -33 425 -33 5 0 10 -20 10 -44 0 -53 2 -52 -190 -62
-72 -4 -133 -10 -135 -14 -2 -4 53 -12 123 -19 70 -6 144 -14 166 -17 38 -6
38 -6 33 -46 -3 -22 -8 -42 -11 -46 -4 -3 -56 -9 -117 -13 -61 -4 -113 -9
-115 -12 -3 -2 47 -8 111 -12 63 -4 117 -10 119 -13 2 -4 7 -31 11 -59 l7 -53
-64 -1 c-34 0 -81 -4 -103 -8 l-40 -9 45 -1 c25 -1 75 -4 112 -7 63 -6 68 -9
77 -36 6 -16 19 -42 31 -58 l20 -28 -87 -7 c-136 -10 -136 -11 -5 -19 l123 -9
50 -48 c27 -26 49 -52 49 -58 0 -5 -21 -13 -47 -16 -80 -11 -80 -12 -5 -20 58
-6 80 -14 109 -36 42 -34 75 -36 152 -10 l54 19 39 -28 c75 -54 195 -63 280
-21 l40 19 38 -38 c43 -43 86 -56 156 -46 87 11 172 78 212 166 9 19 18 37 19
39 2 3 13 -5 26 -16 39 -36 86 -45 142 -28 93 27 154 108 135 176 -6 21 -4 31
7 41 9 7 27 36 39 63 27 57 32 150 11 180 -13 17 -16 16 -55 -20 -42 -38 -53
-31 -27 15 24 41 17 63 -36 123 l-51 57 30 0 c19 0 41 10 61 29 47 44 43 93
-15 193 l-46 78 40 44 c46 50 56 75 48 119 -10 55 -45 88 -98 94 -36 4 -49 11
-59 30 -16 29 -80 68 -128 78 -18 4 -52 20 -75 37 -45 31 -99 48 -156 47 -28
0 -31 -2 -15 -9 11 -4 41 -14 68 -20 77 -20 121 -69 237 -261 57 -96 125 -207
152 -248 51 -78 61 -128 34 -163 -18 -25 -29 -22 -16 3 7 11 9 28 5 37 -5 13
-10 10 -25 -15 -30 -49 -37 -46 -34 15 l4 57 -13 -45 c-11 -40 -16 -45 -44
-48 -25 -3 -36 3 -56 30 -14 18 -34 53 -45 78 -11 25 -36 79 -55 120 -38 84
-86 139 -142 159 -38 13 -105 8 -105 -9 0 -5 6 -7 13 -5 16 6 31 -5 46 -33 10
-20 10 -27 -3 -40 -33 -38 -38 -137 -11 -207 5 -11 -8 -1 -28 23 -39 47 -53
91 -42 144 6 31 5 32 -9 14 -23 -28 -30 -83 -17 -125 22 -75 141 -166 231
-178 28 -4 37 -9 31 -17 -7 -8 10 -10 62 -8 l72 2 -49 -19 c-68 -28 -68 -33
-4 -25 31 4 78 3 105 -1 l48 -8 -50 -9 c-60 -11 -85 -31 -85 -69 0 -31 39 -67
51 -47 5 7 16 2 33 -15 20 -20 26 -37 27 -69 l0 -43 16 32 c9 18 23 35 31 38
12 4 13 -1 8 -27 -10 -52 -32 -68 -91 -68 -49 0 -52 1 -63 33 -15 43 -66 92
-86 84 -9 -4 -16 -18 -16 -34 0 -23 -32 -93 -42 -93 -2 0 -4 26 -4 58 -1 68
-45 170 -93 216 -34 33 -51 28 -52 -17 0 -29 -4 -24 -37 42 -66 134 -163 217
-268 228 -88 9 -156 -5 -222 -45 -99 -61 -169 -165 -187 -279 -6 -38 -6 -38
17 12 13 28 31 65 41 83 21 38 85 112 98 112 5 0 0 -23 -12 -52 -13 -33 -20
-75 -20 -120 0 -73 4 -93 29 -148 8 -19 18 -51 21 -70 5 -25 12 -36 30 -40
l23 -5 -29 -25 c-38 -31 -56 -65 -48 -89 16 -50 70 -31 110 38 21 37 34 50 45
45 8 -4 49 -13 90 -21 101 -19 193 -13 470 31 180 29 277 19 327 -35 31 -35
36 -68 16 -108 -23 -43 -75 -71 -134 -71 -38 0 -52 6 -85 36 -70 63 -96 66
-252 28 -133 -33 -202 -30 -262 10 -35 23 -40 24 -31 7 14 -26 67 -57 121 -72
38 -10 65 -8 177 10 72 12 143 19 157 15 24 -6 25 -7 11 -33 -7 -15 -32 -46
-54 -68 -97 -96 -230 -116 -302 -44 -26 26 -28 27 -56 13 -18 -10 -55 -15
-104 -15 -92 0 -160 27 -205 80 l-31 37 38 28 c21 15 43 36 49 47 9 17 2 15
-39 -10 -154 -96 -355 -24 -437 156 -77 168 -39 345 104 484 118 115 253 180
388 189 161 10 196 -10 366 -206 96 -110 128 -133 180 -131 27 1 29 3 8 6 -41
8 -77 40 -156 141 -95 121 -191 214 -252 243 -31 15 -71 24 -117 26 l-70 3 73
-24 c41 -13 75 -26 77 -28 2 -2 -47 -3 -108 -4 -95 0 -122 -4 -178 -25 l-66
-26 20 51 c11 28 41 83 66 121 l46 70 3 -50 3 -50 36 75 36 75 7 -49 c7 -53
28 -76 68 -76 33 0 60 16 112 65 109 103 174 135 209 103 11 -11 13 -10 9 2
-2 8 -17 21 -32 28 -36 18 -75 4 -176 -63 -104 -69 -119 -74 -142 -45 -41 50
-7 138 77 202 38 29 59 38 89 38 l38 0 -62 -70 c-63 -71 -87 -82 -70 -32 l10
27 -20 -24 c-27 -31 -22 -55 11 -59 20 -2 37 9 75 49 93 97 179 134 217 92 8
-10 22 -34 30 -53 l15 -35 1 34 c2 69 -63 118 -130 100z m-325 -149 c15 -15
-2 -38 -41 -58 -29 -15 -50 -18 -88 -14 -43 5 -55 11 -87 47 l-38 42 123 -5
c67 -2 126 -8 131 -12z m-207 -86 c-6 -7 -92 -33 -95 -29 -3 2 0 17 6 32 5 15
13 37 16 47 6 18 10 16 41 -14 19 -19 34 -35 32 -36z m1019 31 c29 -19 31 -29
4 -20 -15 5 -18 3 -14 -9 7 -17 55 -36 94 -36 33 0 80 -41 81 -72 2 -37 -2
-51 -24 -87 l-20 -34 -13 42 c-13 44 -37 70 -65 71 -8 0 -40 40 -71 89 l-55
89 30 -9 c16 -4 40 -15 53 -24z m-1157 -221 c28 -35 28 -102 1 -137 -36 -45
-52 -43 -132 19 -40 31 -74 59 -76 63 -2 6 161 79 180 81 4 0 16 -12 27 -26z
m989 -81 l20 -43 -28 -30 c-32 -35 -45 -86 -30 -125 15 -40 8 -39 -32 3 -76
80 -76 208 0 254 30 19 34 16 70 -59z m-514 -174 c33 -26 33 -45 0 -53 -15 -4
-51 -31 -80 -61 -56 -58 -65 -56 -63 8 1 104 76 159 143 106z m121 -74 c22 -8
39 -25 46 -42 9 -24 7 -30 -13 -43 -13 -8 -43 -33 -67 -55 l-44 -40 5 88 c3
62 9 91 19 98 18 11 14 11 54 -6z m175 -146 c12 -28 11 -32 -20 -64 -18 -19
-37 -32 -43 -28 -5 3 -7 25 -4 49 8 75 45 98 67 43z m-355 -30 c-8 -23 -15
-56 -15 -74 0 -27 -4 -33 -27 -38 -16 -3 -36 -9 -45 -12 -13 -5 -21 0 -29 19
-21 46 8 89 91 133 38 20 40 17 25 -28z m881 25 c18 -14 16 -15 -30 -10 -27 3
-57 6 -68 6 -11 0 -16 5 -13 10 10 16 89 12 111 -6z m-387 -90 c21 -55 27
-119 13 -141 -4 -6 -37 -17 -72 -22 -105 -17 -103 -19 -65 45 21 34 40 87 51
136 17 80 18 81 35 59 10 -12 27 -47 38 -77z m-317 -47 c2 -30 14 -73 25 -95
l20 -42 -51 0 c-28 0 -56 4 -62 8 -18 11 -26 48 -18 87 6 34 52 95 72 95 5 0
12 -24 14 -53z m798 -15 c0 -40 -44 -142 -62 -142 -5 0 -7 8 -4 18 15 50 17
72 8 89 -9 14 -5 24 16 46 34 36 42 34 42 -11z m-300 -63 c0 -7 -61 -22 -66
-16 -1 1 3 19 9 40 l12 38 22 -28 c13 -15 23 -31 23 -34z m218 -26 c-4 -21
-19 -26 -38 -13 -13 9 -13 11 0 20 23 15 42 12 38 -7z"/>
<path d="M1153 3174 c19 -18 93 -24 114 -9 15 11 8 14 -54 17 -54 2 -69 0 -60
-8z"/>
<path d="M3199 3337 c-23 -18 -39 -52 -39 -84 l1 -28 13 30 c43 99 120 87 238
-37 43 -44 63 -59 80 -56 27 4 36 39 15 56 -12 10 -13 8 -9 -13 2 -14 0 -25
-4 -25 -5 0 -36 30 -68 66 -62 70 -63 90 -4 73 53 -15 139 -97 158 -152 12
-32 12 -41 -3 -73 -16 -32 -21 -35 -45 -29 -15 4 -61 30 -102 58 -94 64 -138
80 -179 66 -44 -16 -40 -35 7 -31 35 3 44 -2 114 -66 126 -114 172 -119 220
-24 26 52 27 52 42 31 8 -12 23 -44 33 -71 21 -58 38 -63 30 -8 -3 22 -2 40 2
40 18 0 105 -151 125 -217 l7 -23 -45 19 c-69 30 -159 44 -238 38 -39 -3 -68
-4 -65 -1 3 3 36 16 73 29 l69 25 -52 0 c-123 0 -216 -66 -375 -268 -91 -114
-109 -130 -163 -143 -28 -7 -28 -7 11 -8 53 -1 67 10 211 171 76 85 129 136
152 146 56 23 194 27 271 8 126 -33 270 -129 350 -236 123 -162 120 -371 -5
-518 -40 -46 -134 -96 -202 -106 -55 -8 -134 10 -179 40 -53 36 -52 23 2 -25
47 -41 47 -41 28 -63 -30 -36 -46 -48 -93 -70 -59 -27 -181 -30 -230 -5 -39
19 -44 21 -36 8 8 -14 -42 -49 -86 -61 -47 -13 -117 1 -177 36 -38 23 -122
114 -122 134 0 19 60 19 181 -1 161 -26 206 -19 271 43 24 22 32 33 18 24 -82
-54 -135 -57 -290 -21 -158 37 -179 35 -253 -31 -31 -29 -45 -34 -85 -34 -85
0 -150 59 -139 127 16 96 121 124 342 88 243 -39 357 -48 449 -36 49 6 98 16
108 22 24 13 36 3 65 -51 26 -46 65 -69 87 -51 26 22 19 58 -19 100 -35 38
-35 40 -13 43 17 2 23 10 24 29 0 14 11 50 24 80 33 75 35 211 3 282 -20 44
-21 46 -3 37 32 -17 80 -82 121 -165 40 -80 43 -67 8 34 -34 98 -103 177 -198
222 -67 33 -217 34 -277 2 -66 -35 -130 -107 -174 -194 -22 -45 -40 -73 -40
-62 0 11 -6 27 -13 37 -11 15 -15 14 -46 -16 -51 -50 -85 -131 -86 -205 0 -35
-3 -63 -7 -63 -13 0 -48 78 -48 105 0 14 -5 25 -11 25 -23 0 -66 -41 -84 -79
-17 -39 -20 -41 -65 -41 -56 0 -78 14 -86 58 -5 25 -3 32 10 32 9 0 16 -6 16
-13 0 -7 6 -21 13 -30 10 -15 12 -11 14 25 3 44 40 98 54 77 4 -8 13 -7 28 3
65 40 16 117 -76 119 l-28 0 25 11 c14 5 57 8 97 5 81 -4 86 5 15 28 l-47 15
77 -3 c56 -1 74 1 67 9 -7 8 3 14 34 18 92 14 203 108 226 191 6 22 6 48 0 70
-13 47 -32 57 -24 13 8 -42 -10 -89 -54 -138 l-31 -35 16 40 c21 51 15 146
-10 174 -26 29 -17 63 23 83 l33 17 -36 7 c-46 8 -113 -16 -148 -54 -27 -29
-67 -103 -117 -215 -44 -97 -67 -127 -100 -127 -35 0 -51 17 -51 54 0 23 -3
27 -12 18 -9 -9 -9 -22 -1 -55 l11 -42 -35 40 -36 40 6 -40 6 -40 -20 25 c-16
18 -19 33 -15 58 4 30 22 61 112 202 35 56 104 171 131 220 67 120 136 180
231 202 45 10 51 13 29 16 -48 6 -130 -17 -169 -48 -20 -16 -55 -32 -77 -36
-47 -8 -121 -56 -128 -85 -4 -15 -14 -19 -44 -19 -87 0 -138 -105 -90 -184 13
-20 34 -44 47 -55 l25 -19 -38 -64 c-76 -124 -80 -153 -29 -204 25 -25 43 -34
67 -34 l33 0 -43 -42 c-67 -67 -74 -87 -49 -137 11 -23 18 -45 14 -48 -3 -4
-24 11 -47 33 -49 48 -59 39 -59 -56 0 -63 22 -131 53 -168 7 -8 12 -37 12
-63 0 -54 22 -90 75 -127 69 -47 145 -48 202 -2 l25 19 18 -39 c23 -50 93
-122 142 -146 61 -28 134 -30 187 -4 25 12 46 25 46 28 0 4 7 15 15 26 13 18
15 18 59 -4 91 -44 213 -34 289 24 l33 26 52 -20 c72 -27 103 -25 147 10 26
20 49 30 74 31 20 0 54 4 76 8 l40 9 -45 2 c-25 1 -55 5 -68 8 l-23 7 23 31
c53 72 72 81 203 90 l120 8 -99 8 c-55 5 -102 10 -104 13 -2 2 4 16 15 32 10
15 24 40 30 54 9 22 20 27 65 32 29 4 76 7 103 8 l50 1 -40 9 c-22 4 -65 8
-96 8 l-57 1 5 48 c3 26 6 52 8 58 2 8 48 15 122 20 126 8 120 20 -12 23 -103
2 -112 6 -119 53 -4 22 -5 43 -2 45 2 3 77 12 166 21 88 8 155 19 148 23 -7 3
-71 10 -143 13 -175 10 -171 8 -174 60 l-2 43 58 6 c32 4 132 12 223 18 91 6
166 13 168 14 1 1 -84 6 -190 9 -243 9 -255 11 -263 43 -3 14 -4 27 -2 29 2 2
118 16 257 29 226 23 311 35 239 35 -52 0 -425 22 -438 26 -11 4 -10 8 4 24
17 19 16 20 -41 46 l-59 28 170 12 c94 7 194 12 223 13 90 2 58 21 -35 21 -49
0 -162 5 -252 10 -140 9 -168 13 -185 29 -12 11 -34 25 -51 32 -33 14 -39 13
240 36 l90 8 -155 6 c-85 4 -169 7 -186 8 -27 1 -32 6 -47 53 -9 29 -15 53
-14 55 2 1 43 6 93 10 l89 8 -135 6 c-74 4 -188 7 -252 8 -124 1 -156 14 -64
25 117 15 115 23 -9 31 -86 5 -131 13 -157 26 -44 23 -77 24 -103 5 -17 -12
-23 -12 -47 0 -33 17 -107 18 -129 1z m631 -162 c-37 -37 -50 -45 -81 -45 -21
0 -40 -4 -44 -10 -7 -12 -95 41 -95 57 0 7 -1 16 -2 21 -3 6 69 12 227 20 l39
2 -44 -45z m-950 0 c0 -3 -17 -31 -37 -63 -20 -31 -42 -66 -48 -76 -6 -10 -24
-20 -39 -22 -40 -4 -64 -30 -74 -78 l-8 -41 -22 35 c-12 19 -22 48 -22 63 0
40 49 87 90 87 33 0 90 25 90 39 0 5 -10 7 -22 4 -33 -8 -12 12 37 36 41 21
55 25 55 16z m1022 -42 c9 -26 16 -48 15 -50 -4 -4 -85 22 -93 30 -7 7 43 67
55 67 4 0 14 -21 23 -47z m168 -218 c45 -19 86 -38 91 -41 6 -3 -25 -33 -67
-66 -68 -53 -80 -60 -103 -52 -35 12 -63 69 -57 113 4 27 39 81 52 81 1 0 39
-16 84 -35z m-999 -46 c28 -40 30 -132 3 -175 -37 -60 -102 -116 -74 -65 21
40 12 98 -20 135 -31 34 -31 35 -15 73 28 68 43 85 65 73 10 -5 29 -24 41 -41z
m514 -201 c31 -27 46 -87 37 -142 l-7 -40 -17 25 c-27 42 -74 85 -112 103 -31
15 -34 19 -24 36 27 43 84 51 123 18z m-156 -95 c12 -42 15 -136 4 -146 -3 -4
-28 13 -54 38 -27 25 -53 45 -59 45 -19 0 -10 46 13 67 49 45 83 43 96 -4z
m-197 -110 c13 -11 18 -30 18 -65 0 -26 -2 -48 -4 -48 -2 0 -20 16 -40 35 -36
34 -37 35 -21 65 18 35 22 36 47 13z m-462 -12 c0 -8 -72 -21 -114 -21 -20 1
-19 2 4 15 27 16 110 20 110 6z m356 -99 c10 -47 27 -89 50 -123 l34 -51 -68
8 c-91 9 -108 17 -115 52 -8 39 15 121 49 180 22 37 29 43 32 27 1 -11 10 -53
18 -93z m453 88 c37 -18 91 -72 91 -90 0 -5 -5 -21 -12 -35 -9 -20 -17 -25
-32 -20 -12 4 -30 9 -42 12 -16 4 -23 17 -32 56 -5 29 -13 62 -17 75 -9 27 -5
27 44 2z m-164 -110 c21 -22 29 -42 33 -81 6 -64 -9 -79 -80 -79 l-48 0 20 40
c12 24 21 61 21 95 2 64 12 69 54 25z m-785 -64 c-13 -13 -13 -72 1 -98 9 -16
8 -19 -3 -16 -23 7 -58 89 -58 136 l0 43 35 -27 c25 -19 33 -30 25 -38z m300
-45 c0 -9 -8 -11 -27 -6 -37 9 -37 8 -17 47 l17 33 13 -30 c7 -16 13 -36 14
-44z m-244 -33 c-21 -12 -36 -2 -36 23 0 19 1 19 26 3 22 -15 23 -19 10 -26z"/>
<path d="M893 3170 c-13 -36 -10 -39 39 -33 64 8 62 62 -2 63 -19 0 -28 -7
-37 -30z"/>
<path d="M3974 3193 c-16 -3 -20 -10 -16 -29 4 -21 10 -24 48 -24 49 0 48 -1
32 35 -11 24 -20 27 -64 18z"/>
<path d="M1960 3070 c0 -5 9 -11 19 -15 37 -11 120 -116 166 -206 38 -77 45
-86 45 -60 0 74 -77 209 -143 250 -44 27 -87 43 -87 31z"/>
<path d="M2922 3058 c-84 -41 -165 -161 -178 -268 -4 -29 2 -22 37 44 52 101
112 180 155 207 19 11 34 25 34 30 0 11 3 12 -48 -13z"/>
<path d="M850 3035 c0 -9 6 -12 15 -9 8 4 15 10 15 15 0 5 -7 9 -15 9 -8 0
-15 -7 -15 -15z"/>
<path d="M4060 3040 c0 -5 7 -10 16 -10 8 0 12 5 9 10 -3 6 -10 10 -16 10 -5
0 -9 -4 -9 -10z"/>
<path d="M1985 2400 c-4 -7 -3 -16 3 -22 14 -14 45 -2 40 15 -6 16 -34 21 -43
7z"/>
<path d="M2914 2399 c-10 -17 13 -36 27 -22 12 12 4 33 -11 33 -5 0 -12 -5
-16 -11z"/>
<path d="M2104 2319 c-10 -17 13 -36 27 -22 12 12 4 33 -11 33 -5 0 -12 -5
-16 -11z"/>
<path d="M2796 2322 c-2 -4 -1 -14 4 -21 11 -19 41 -6 34 14 -6 16 -29 20 -38
7z"/>
<path d="M860 2000 c0 -27 22 -50 47 -50 26 0 26 0 7 21 -25 28 -54 43 -54 29z"/>
<path d="M4038 1985 c-34 -29 -35 -35 -4 -35 18 0 27 8 35 30 12 36 5 37 -31
5z"/>
<path d="M3852 1400 l-44 -49 61 -80 c33 -45 58 -81 55 -81 -3 0 -41 25 -84
55 l-79 56 -43 -47 c-24 -25 -44 -49 -46 -53 -2 -6 71 -95 205 -249 l56 -64
38 38 c22 21 39 41 39 44 0 3 -36 42 -79 88 -43 45 -77 82 -75 82 2 0 46 -30
99 -66 102 -70 94 -69 138 -17 18 21 18 22 -45 105 -77 99 -90 120 -57 92 13
-11 55 -47 93 -79 l68 -60 34 40 c19 22 32 44 31 49 -4 11 -309 246 -317 245
-3 -1 -25 -23 -48 -49z"/>
<path d="M1048 1402 c-8 -18 -204 -172 -220 -172 -9 0 -23 11 -30 25 l-13 24
-39 -32 c-38 -33 -38 -33 -23 -62 27 -53 64 -80 107 -79 34 1 55 14 158 97
165 134 158 124 116 170 -34 36 -49 45 -56 29z"/>
<path d="M1126 1248 c-21 -24 -83 -89 -139 -146 l-102 -102 41 -41 41 -40 139
146 c76 81 140 150 142 155 3 8 -64 70 -77 70 -4 0 -25 -19 -45 -42z"/>
<path d="M1240 1132 c-165 -222 -175 -242 -144 -307 35 -74 138 -111 199 -71
29 19 208 254 203 267 -2 4 -21 21 -42 37 l-40 30 -74 -102 c-93 -127 -111
-146 -128 -139 -29 11 -11 51 71 158 l84 110 -37 32 c-20 18 -41 33 -47 32 -5
0 -26 -21 -45 -47z"/>
<path d="M3517 1090 l-55 -40 55 -132 c29 -73 66 -161 80 -195 l26 -62 44 30
c39 27 43 34 38 59 -5 23 -1 31 23 49 29 20 30 20 47 2 16 -19 18 -19 60 11
24 17 41 36 38 42 -3 6 -33 35 -67 65 -33 30 -81 73 -106 96 -25 22 -63 58
-86 78 l-41 37 -56 -40z m161 -217 c-18 -23 -27 -14 -64 60 l-36 72 55 -60
c40 -44 52 -63 45 -72z"/>
<path d="M3278 944 c-49 -24 -88 -47 -88 -50 0 -3 41 -86 90 -184 l91 -180 89
45 c50 25 90 49 90 54 0 6 -27 68 -35 78 -1 2 -21 -6 -44 -18 -24 -11 -44 -19
-46 -17 -8 10 -26 50 -23 53 2 1 18 10 36 19 17 9 32 18 32 21 0 13 -35 75
-42 75 -5 0 -24 -6 -42 -14 -32 -13 -34 -13 -45 10 -14 32 -15 31 12 38 12 3
30 12 40 20 18 14 18 16 -3 55 -11 23 -21 41 -23 40 -1 0 -41 -20 -89 -45z"/>
<path d="M1676 765 c-51 -118 -61 -135 -82 -135 -12 0 -26 5 -29 10 -3 6 -10
10 -15 10 -12 0 -44 -86 -36 -98 11 -18 74 -42 108 -42 64 0 71 9 164 227 l52
123 -45 20 c-25 11 -49 20 -53 20 -4 0 -33 -61 -64 -135z"/>
<path d="M3050 849 c-47 -16 -90 -31 -97 -34 -9 -3 -8 -15 4 -50 15 -45 17
-46 47 -41 l31 6 49 -145 c54 -159 46 -151 122 -119 l33 14 -50 142 c-47 133
-49 143 -33 155 10 7 23 13 30 13 10 0 9 11 -3 45 -18 53 -19 53 -133 14z"/>
<path d="M1420 808 c-11 -18 -20 -36 -20 -40 0 -6 102 -68 111 -68 3 0 13 16
23 35 22 40 21 40 -46 79 l-48 27 -20 -33z"/>
<path d="M1876 823 c-8 -28 -86 -284 -101 -330 l-13 -42 46 -15 c25 -9 49 -16
53 -16 8 0 122 354 124 384 0 10 -59 34 -87 35 -9 1 -19 -7 -22 -16z"/>
<path d="M2010 788 c0 -7 -3 -30 -6 -50 -6 -34 -4 -38 15 -38 12 0 24 -6 27
-14 3 -8 -6 -76 -20 -152 -14 -76 -22 -142 -18 -145 4 -4 28 -10 53 -14 l46
-7 11 44 c5 23 18 92 28 151 l18 108 33 -6 c18 -3 33 -2 33 2 1 4 5 27 9 51 5
23 8 42 7 42 -1 0 -51 9 -111 20 -129 24 -125 23 -125 8z"/>
<path d="M2691 763 c-23 -5 -24 -7 -17 -76 19 -209 19 -234 4 -239 -32 -13
-39 10 -53 153 -8 79 -15 145 -15 147 0 1 -25 2 -55 2 -43 0 -55 -3 -55 -15 0
-9 7 -82 15 -162 17 -158 32 -199 80 -221 64 -29 158 -4 190 51 15 26 17 45
12 136 -4 58 -10 134 -13 169 -7 62 -7 62 -38 61 -17 -1 -42 -4 -55 -6z"/>
<path d="M2314 741 c-18 -11 -38 -36 -47 -60 -29 -71 -22 -98 46 -168 25 -27
38 -47 34 -57 -8 -20 -47 -21 -73 -1 -30 23 -34 19 -34 -44 l0 -59 46 -10 c85
-18 155 24 170 103 10 53 -3 86 -54 138 -43 43 -45 48 -30 63 15 15 19 15 52
-5 l36 -23 0 60 c0 58 -1 60 -31 71 -46 16 -80 14 -115 -8z"/>
</g>
</svg>
