<?xml version="1.0" encoding="UTF-8" standalone="no" ?>
<!DOCTYPE svg PUBLIC "-//W3C//DTD SVG 1.1//EN" "http://www.w3.org/Graphics/SVG/1.1/DTD/svg11.dtd">
<svg xmlns="http://www.w3.org/2000/svg" xmlns:xlink="http://www.w3.org/1999/xlink" version="1.1" width="1080" height="1080" viewBox="0 0 1080 1080" xml:space="preserve">
<desc>Created with Fabric.js 5.2.4</desc>
<defs>
</defs>
<g transform="matrix(1 0 0 1 540 540)" id="9bfe1990-3d39-4aaf-bac9-66fecb00209b"  >
<rect style="stroke: none; stroke-width: 1; stroke-dasharray: none; stroke-linecap: butt; stroke-dashoffset: 0; stroke-linejoin: miter; stroke-miterlimit: 4; fill: rgb(255,255,255); fill-rule: nonzero; opacity: 1; visibility: hidden;" vector-effect="non-scaling-stroke"  x="-540" y="-540" rx="0" ry="0" width="1080" height="1080" />
</g>
<g transform="matrix(1 0 0 1 540 540)" id="a63774dd-87d8-4a61-bf3b-028e140f746c"  >
</g>
<g transform="matrix(1 0 0 1 540 540)"  >
<g style="" vector-effect="non-scaling-stroke"   >
		<g transform="matrix(0.13 0 0 -0.13 0 0)"  >
<path style="stroke: none; stroke-width: 1; stroke-dasharray: none; stroke-linecap: butt; stroke-dashoffset: 0; stroke-linejoin: miter; stroke-miterlimit: 4; fill: rgb(0,0,0); fill-rule: nonzero; opacity: 1;" vector-effect="non-scaling-stroke"  transform=" translate(-4795, -7934.95)" d="M 4640 11528 C 4450 11522 4405 11518 4192 11485 C 3946 11448 3596 11346 3380 11248 C 3053 11100 2860 10987 2610 10797 C 2283 10548 1972 10208 1743 9850 C 1628 9670 1478 9359 1396 9130 C 1356 9018 1288 8766 1261 8627 C 1208 8354 1205 8318 1205 7940 C 1205 7599 1209 7528 1240 7365 C 1269 7210 1302 7051 1311 7025 C 1316 7009 1334 6946 1351 6885 C 1396 6729 1479 6520 1569 6340 C 1742 5991 1940 5713 2215 5432 C 2556 5082 2899 4842 3336 4645 C 3392 4620 3440 4600 3444 4600 C 3447 4600 3469 4591 3493 4581 C 3665 4502 4047 4405 4340 4365 C 4809 4302 5361 4347 5823 4487 C 5986 4536 6160 4601 6287 4661 C 6333 4683 6372 4700 6376 4700 C 6385 4700 6572 4805 6671 4866 C 6783 4934 6918 5026 7006 5095 C 7158 5212 7448 5492 7545 5615 C 7567 5643 7587 5667 7590 5670 C 7603 5683 7680 5781 7712 5825 C 8026 6261 8237 6751 8330 7264 C 8384 7557 8385 7568 8385 7940 C 8385 8184 8381 8318 8372 8370 C 8365 8411 8355 8474 8349 8510 C 8306 8787 8234 9039 8104 9360 C 7996 9627 7773 9987 7546 10260 C 7384 10455 7110 10707 6880 10872 C 6676 11018 6336 11204 6135 11280 C 5958 11346 5904 11364 5790 11397 C 5521 11474 5193 11526 4945 11532 C 4885 11534 4747 11532 4640 11528 z M 5001 11435 C 5144 11430 5318 11411 5435 11389 C 5539 11370 5802 11304 5870 11280 C 6009 11232 6083 11204 6128 11184 C 6157 11171 6182 11160 6184 11160 C 6198 11160 6456 11031 6537 10984 C 6789 10836 6975 10699 7183 10507 C 7696 10032 8056 9410 8213 8725 C 8283 8422 8293 8320 8294 7950 C 8295 7646 8287 7518 8254 7340 C 8150 6768 7933 6270 7589 5815 C 7497 5693 7439 5627 7301 5487 C 7008 5188 6681 4950 6340 4788 C 6045 4647 5866 4583 5560 4511 C 5444 4484 5322 4466 5078 4440 C 4842 4415 4438 4435 4155 4486 C 3959 4520 3648 4611 3481 4682 C 3456 4692 3422 4706 3405 4713 C 3337 4740 3068 4880 2974 4937 C 2867 5002 2830 5026 2765 5074 C 2743 5091 2700 5122 2670 5144 C 2522 5253 2309 5452 2157 5623 C 1788 6037 1507 6584 1377 7140 C 1346 7269 1335 7336 1300 7608 C 1285 7721 1285 8153 1299 8270 C 1315 8398 1349 8616 1361 8665 C 1404 8847 1471 9081 1499 9145 C 1504 9156 1520 9197 1536 9235 C 1568 9317 1607 9405 1643 9475 C 1656 9503 1682 9554 1700 9590 C 1738 9666 1803 9775 1873 9880 C 2176 10331 2569 10702 3030 10972 C 3114 11021 3338 11135 3370 11145 C 3384 11149 3422 11165 3455 11180 C 3488 11196 3535 11215 3560 11223 C 3585 11232 3632 11249 3665 11261 C 3977 11373 4487 11457 4780 11444 C 4821 11442 4921 11438 5001 11435 z" stroke-linecap="round" />
</g>
		<g transform="matrix(0.13 0 0 -0.13 22.84 -403.64)"  >
<path style="stroke: none; stroke-width: 1; stroke-dasharray: none; stroke-linecap: butt; stroke-dashoffset: 0; stroke-linejoin: miter; stroke-miterlimit: 4; fill: rgb(0,0,0); fill-rule: nonzero; opacity: 1;" vector-effect="non-scaling-stroke"  transform=" translate(-4966.34, -10962.25)" d="M 4776 11342 C 4771 11333 4776 11301 4796 11208 C 4810 11145 4734 10925 4645 10771 C 4619 10727 4601 10687 4604 10682 C 4607 10677 4635 10655 4666 10634 C 4733 10588 4723 10580 4808 10747 C 4839 10809 4869 10858 4875 10857 C 4880 10855 4891 10827 4900 10794 C 4908 10762 4919 10729 4923 10722 C 4933 10707 5086 10705 5095 10720 C 5103 10733 5120 10733 5120 10719 C 5120 10708 5177 10589 5188 10578 C 5195 10571 5232 10587 5307 10628 L 5329 10640 L 5288 10728 C 5266 10776 5237 10844 5225 10880 C 5193 10971 5149 11140 5152 11159 C 5154 11169 5166 11174 5185 11175 C 5215 11175 5215 11176 5221 11240 C 5224 11276 5224 11309 5220 11313 C 5216 11317 5144 11325 5059 11330 C 4974 11335 4877 11342 4844 11346 C 4807 11350 4780 11348 4776 11342 z M 5109 11174 C 5130 11167 5111 11155 5058 11140 C 5001 11125 5001 11128 5035 10985 C 5049 10927 5058 10874 5054 10869 C 5048 10859 4918 10858 4893 10868 C 4875 10874 4877 10890 4904 10972 C 4918 11012 4934 11074 4941 11110 C 4948 11146 4957 11178 4962 11181 C 4971 11187 5086 11182 5109 11174 z" stroke-linecap="round" />
</g>
		<g transform="matrix(0.13 0 0 -0.13 -101.85 -394.01)"  >
<path style="stroke: none; stroke-width: 1; stroke-dasharray: none; stroke-linecap: butt; stroke-dashoffset: 0; stroke-linejoin: miter; stroke-miterlimit: 4; fill: rgb(0,0,0); fill-rule: nonzero; opacity: 1;" vector-effect="non-scaling-stroke"  transform=" translate(-4031.13, -10890)" d="M 4298 11324 C 4295 11321 4253 11310 4206 11299 C 4159 11287 4120 11275 4120 11271 C 4120 11267 4129 11228 4140 11185 C 4151 11142 4160 11103 4160 11098 C 4160 11082 4140 11090 4055 11139 C 3945 11202 3891 11216 3813 11200 C 3716 11181 3620 11150 3620 11138 C 3620 11123 3670 11037 3684 11028 C 3690 11023 3714 11023 3738 11026 C 3789 11034 3793 11020 3750 10988 C 3714 10962 3714 10951 3745 10835 C 3794 10659 3802 10611 3789 10552 C 3783 10523 3780 10497 3782 10496 C 3786 10492 3908 10450 3914 10450 C 3922 10450 3939 10514 3945 10565 C 3952 10621 3940 10688 3886 10898 C 3866 10976 3852 11045 3856 11051 C 3872 11078 3970 11026 4059 10944 C 4142 10867 4217 10748 4284 10586 C 4299 10550 4302 10548 4337 10553 C 4396 10561 4434 10572 4441 10583 C 4445 10588 4439 10620 4430 10654 C 4420 10687 4398 10771 4382 10840 C 4365 10909 4342 11001 4330 11044 C 4303 11145 4306 11174 4343 11178 C 4377 11182 4385 11199 4372 11242 C 4366 11260 4359 11287 4356 11303 C 4351 11323 4344 11330 4326 11330 C 4314 11330 4301 11327 4298 11324 z" stroke-linecap="round" />
</g>
		<g transform="matrix(0.13 0 0 -0.13 135.04 -384.87)"  >
<path style="stroke: none; stroke-width: 1; stroke-dasharray: none; stroke-linecap: butt; stroke-dashoffset: 0; stroke-linejoin: miter; stroke-miterlimit: 4; fill: rgb(0,0,0); fill-rule: nonzero; opacity: 1;" vector-effect="non-scaling-stroke"  transform=" translate(-5807.8, -10821.45)" d="M 5645 11188 C 5634 11113 5641 11087 5678 11071 C 5720 11052 5714 11036 5662 11032 C 5611 11028 5601 11013 5593 10927 C 5583 10818 5614 10781 5760 10725 C 5801 10709 5839 10693 5843 10690 C 5852 10682 5823 10603 5802 10578 C 5779 10550 5716 10556 5610 10595 C 5558 10614 5510 10630 5503 10630 C 5487 10630 5480 10519 5495 10502 C 5502 10495 5554 10473 5611 10453 C 5789 10391 5873 10404 5933 10502 C 5958 10543 6030 10737 6030 10765 C 6030 10771 5973 10796 5903 10820 C 5809 10854 5772 10872 5757 10891 C 5739 10917 5739 10920 5755 10975 C 5774 11043 5765 11043 5944 10981 C 6010 10958 6069 10940 6076 10940 C 6087 10940 6136 11069 6128 11075 C 6126 11076 6062 11099 5985 11125 C 5908 11151 5815 11183 5778 11195 C 5742 11208 5698 11221 5682 11225 C 5652 11231 5651 11230 5645 11188 z" stroke-linecap="round" />
</g>
		<g transform="matrix(0.13 0 0 -0.13 -213.15 -353.94)"  >
<path style="stroke: none; stroke-width: 1; stroke-dasharray: none; stroke-linecap: butt; stroke-dashoffset: 0; stroke-linejoin: miter; stroke-miterlimit: 4; fill: rgb(0,0,0); fill-rule: nonzero; opacity: 1;" vector-effect="non-scaling-stroke"  transform=" translate(-3196.39, -10589.51)" d="M 3185 10940 C 3142 10914 3104 10888 3102 10882 C 3096 10864 3193 10781 3220 10780 C 3240 10779 3253 10765 3287 10709 L 3329 10639 L 3303 10614 C 3288 10601 3266 10587 3253 10584 C 3220 10575 3143 10585 3125 10600 C 3117 10607 3083 10659 3049 10716 L 2987 10819 L 2931 10789 C 2900 10772 2871 10755 2866 10750 C 2857 10741 2919 10622 2968 10555 C 2984 10533 3023 10497 3054 10475 C 3110 10437 3115 10435 3189 10436 C 3256 10437 3271 10440 3314 10468 C 3341 10485 3367 10497 3371 10494 C 3397 10478 3368 10381 3319 10319 C 3303 10299 3290 10278 3290 10273 C 3290 10262 3375 10190 3388 10190 C 3407 10190 3472 10281 3496 10340 C 3549 10470 3536 10577 3453 10722 C 3322 10946 3294 10990 3280 10989 C 3272 10989 3229 10967 3185 10940 z" stroke-linecap="round" />
</g>
		<g transform="matrix(0.13 0 0 -0.13 224.79 -348.94)"  >
<path style="stroke: none; stroke-width: 1; stroke-dasharray: none; stroke-linecap: butt; stroke-dashoffset: 0; stroke-linejoin: miter; stroke-miterlimit: 4; fill: rgb(0,0,0); fill-rule: nonzero; opacity: 1;" vector-effect="non-scaling-stroke"  transform=" translate(-6480.9, -10552.03)" d="M 6405 10929 C 6397 10916 6370 10820 6370 10803 C 6370 10797 6416 10762 6472 10726 C 6579 10657 6586 10639 6496 10658 C 6442 10669 6449 10676 6351 10518 C 6285 10412 6227 10344 6174 10314 C 6156 10303 6156 10300 6187 10236 C 6205 10200 6223 10170 6227 10170 C 6243 10170 6348 10246 6372 10275 C 6402 10311 6513 10482 6559 10563 C 6577 10595 6599 10624 6606 10627 C 6614 10630 6640 10620 6664 10606 C 6689 10592 6715 10580 6722 10580 C 6729 10580 6750 10607 6768 10639 L 6800 10698 L 6748 10733 C 6719 10752 6682 10775 6665 10784 C 6649 10793 6601 10822 6560 10848 C 6419 10938 6412 10941 6405 10929 z" stroke-linecap="round" />
</g>
		<g transform="matrix(0.13 0 0 -0.13 -294.95 -285.34)"  >
<path style="stroke: none; stroke-width: 1; stroke-dasharray: none; stroke-linecap: butt; stroke-dashoffset: 0; stroke-linejoin: miter; stroke-miterlimit: 4; fill: rgb(0,0,0); fill-rule: nonzero; opacity: 1;" vector-effect="non-scaling-stroke"  transform=" translate(-2582.84, -10075)" d="M 2368 10326 C 2259 10215 2169 10121 2168 10115 C 2165 10107 2273 10040 2290 10040 C 2294 10040 2314 10056 2334 10076 C 2354 10096 2374 10109 2377 10106 C 2381 10103 2375 10075 2364 10045 L 2346 9990 L 2530 9805 C 2632 9703 2722 9620 2730 9621 C 2738 9622 2764 9643 2787 9669 L 2829 9716 L 2798 9750 C 2762 9791 2776 9800 2836 9775 L 2874 9759 L 2926 9811 C 2992 9876 3008 9925 2992 10010 C 2971 10125 2939 10171 2756 10358 C 2662 10452 2581 10529 2575 10529 C 2570 10528 2476 10437 2368 10326 z M 2686 10218 C 2830 10078 2878 9994 2847 9934 C 2830 9901 2751 9820 2736 9820 C 2723 9820 2410 10131 2410 10144 C 2410 10158 2562 10310 2577 10310 C 2584 10310 2633 10269 2686 10218 z" stroke-linecap="round" />
</g>
		<g transform="matrix(0.13 0 0 -0.13 295.47 -294.34)"  >
<path style="stroke: none; stroke-width: 1; stroke-dasharray: none; stroke-linecap: butt; stroke-dashoffset: 0; stroke-linejoin: miter; stroke-miterlimit: 4; fill: rgb(0,0,0); fill-rule: nonzero; opacity: 1;" vector-effect="non-scaling-stroke"  transform=" translate(-7011, -10142.5)" d="M 6955 10421 C 6851 10319 6818 10259 6818 10176 C 6818 10103 6845 10031 6892 9982 C 6916 9958 6921 9947 6912 9938 C 6894 9920 6793 9928 6738 9952 C 6711 9963 6688 9971 6686 9969 C 6684 9967 6670 9940 6655 9911 L 6628 9856 L 6650 9838 C 6690 9806 6779 9785 6875 9785 C 7014 9786 7048 9806 7238 9994 L 7394 10148 L 7315 10229 C 7227 10320 7231 10319 7186 10236 C 7167 10202 7161 10179 7165 10161 C 7170 10138 7162 10126 7111 10077 C 7058 10026 7048 10021 7032 10031 C 6999 10052 6960 10121 6960 10160 C 6960 10205 6974 10226 7069 10322 L 7144 10400 L 7110 10437 C 7072 10477 7048 10499 7040 10500 C 7037 10500 6999 10464 6955 10421 z" stroke-linecap="round" />
</g>
		<g transform="matrix(0.13 0 0 -0.13 0.22 2.36)"  >
<path style="stroke: none; stroke-width: 1; stroke-dasharray: none; stroke-linecap: butt; stroke-dashoffset: 0; stroke-linejoin: miter; stroke-miterlimit: 4; fill: rgb(0,0,0); fill-rule: nonzero; opacity: 1;" vector-effect="non-scaling-stroke"  transform=" translate(-4796.63, -7917.24)" d="M 4645 10449 C 4109 10422 3578 10218 3170 9881 C 3086 9812 2891 9615 2816 9523 C 2539 9183 2357 8769 2283 8305 C 2260 8160 2260 7752 2284 7610 C 2335 7298 2441 6995 2593 6725 C 2669 6589 2691 6554 2758 6455 C 2933 6197 3176 5960 3439 5788 C 3694 5622 3996 5496 4285 5435 C 4898 5305 5529 5414 6075 5743 C 6196 5816 6209 5825 6330 5920 C 6576 6113 6783 6356 6952 6650 C 7125 6952 7225 7201 7273 7455 C 7316 7676 7319 7701 7325 7845 C 7342 8222 7268 8611 7115 8962 C 6835 9601 6277 10107 5615 10321 C 5549 10342 5482 10364 5465 10369 C 5413 10386 5229 10419 5100 10434 C 4943 10453 4811 10457 4645 10449 z M 4867 10248 C 4902 10224 4932 10200 4934 10193 C 4937 10187 4929 10169 4917 10154 C 4901 10134 4896 10113 4896 10073 C 4896 10029 4900 10016 4925 9989 C 4974 9938 5026 9916 5100 9916 C 5210 9916 5308 9984 5353 10092 C 5364 10118 5376 10140 5380 10140 C 5399 10140 5450 10074 5450 10050 C 5450 10014 5432 9993 5376 9962 C 5314 9927 5291 9891 5309 9857 C 5319 9838 5319 9827 5311 9811 C 5304 9800 5296 9790 5292 9790 C 5288 9789 5063 9789 4791 9788 L 4297 9787 L 4279 9812 C 4262 9835 4262 9839 4275 9850 C 4283 9857 4290 9870 4290 9880 C 4290 9900 4223 9965 4193 9974 C 4182 9977 4164 9997 4152 10018 C 4131 10056 4131 10056 4150 10087 C 4166 10115 4197 10140 4214 10140 C 4217 10140 4225 10122 4231 10099 C 4248 10045 4306 9981 4371 9945 C 4445 9905 4536 9904 4601 9942 C 4660 9977 4680 10001 4691 10051 C 4700 10088 4698 10100 4675 10143 C 4661 10171 4653 10197 4657 10201 C 4679 10221 4785 10290 4794 10290 C 4800 10290 4833 10271 4867 10248 z M 5778 9979 C 5752 9933 5736 9922 5665 9900 C 5592 9877 5577 9845 5579 9722 C 5580 9640 5578 9624 5561 9606 C 5543 9587 5520 9490 5534 9490 C 5537 9490 5556 9506 5576 9525 C 5595 9544 5619 9560 5628 9560 C 5638 9560 5674 9591 5710 9629 C 5769 9691 5782 9700 5844 9719 C 5947 9749 5950 9743 5880 9647 C 5838 9589 5833 9576 5842 9560 C 5851 9546 5851 9535 5843 9517 C 5833 9495 5834 9490 5852 9478 C 5871 9465 5872 9464 5855 9412 C 5845 9383 5839 9357 5842 9355 C 5844 9352 5863 9373 5884 9401 C 5919 9448 5924 9451 5953 9444 C 6034 9426 6130 9449 6130 9485 C 6130 9499 6127 9499 6100 9485 C 6084 9477 6059 9470 6045 9470 C 6031 9470 6006 9477 5990 9485 C 5966 9498 5960 9507 5960 9534 C 5960 9562 5956 9568 5929 9576 L 5898 9585 L 5919 9612 C 5949 9649 5999 9659 6021 9632 C 6041 9607 6050 9613 6050 9652 C 6050 9677 6047 9680 6016 9680 C 5970 9680 5964 9693 5992 9731 C 6029 9781 6050 9784 6149 9754 C 6278 9715 6338 9655 6270 9631 C 6231 9618 6232 9600 6272 9600 C 6311 9600 6446 9535 6455 9512 C 6462 9494 6417 9450 6393 9450 C 6386 9450 6380 9443 6380 9435 C 6380 9426 6389 9420 6403 9420 C 6444 9420 6531 9389 6537 9373 C 6541 9363 6535 9350 6520 9338 C 6508 9328 6499 9318 6501 9316 C 6503 9314 6537 9302 6577 9291 C 6626 9276 6661 9259 6685 9236 C 6721 9202 6730 9180 6708 9180 C 6701 9180 6677 9175 6655 9169 L 6615 9157 L 6652 9145 C 6714 9123 6740 9101 6740 9069 C 6740 9047 6734 9039 6715 9034 C 6701 9031 6681 9030 6670 9033 C 6629 9044 6653 9022 6740 8972 C 6832 8918 6860 8886 6860 8837 C 6860 8804 6853 8800 6817 8811 C 6800 8816 6784 8818 6782 8816 C 6780 8813 6823 8767 6878 8713 L 6979 8615 L 6980 8550 C 6982 8440 6981 8427 6971 8417 C 6966 8412 6934 8430 6889 8464 C 6806 8527 6763 8541 6725 8516 C 6685 8490 6637 8495 6612 8530 C 6583 8569 6584 8575 6621 8586 C 6673 8601 6679 8623 6644 8667 C 6598 8725 6596 8729 6616 8751 C 6630 8767 6632 8776 6623 8804 C 6614 8832 6615 8843 6627 8860 C 6639 8877 6640 8887 6631 8906 C 6625 8920 6620 8944 6620 8960 C 6620 8977 6615 8990 6610 8990 C 6604 8990 6594 9002 6587 9018 C 6574 9048 6428 9200 6412 9200 C 6407 9200 6396 9207 6389 9216 C 6382 9225 6366 9236 6353 9241 C 6338 9247 6330 9258 6330 9274 C 6330 9293 6322 9301 6296 9310 C 6270 9318 6260 9328 6258 9347 C 6256 9364 6245 9376 6223 9385 C 6192 9398 6191 9398 6193 9372 C 6195 9347 6192 9345 6160 9346 C 6141 9346 6117 9350 6108 9354 C 6093 9361 6090 9357 6090 9336 C 6090 9313 6093 9311 6123 9317 C 6140 9320 6157 9323 6160 9323 C 6163 9324 6175 9321 6188 9316 C 6218 9306 6216 9285 6181 9261 C 6158 9245 6154 9235 6158 9213 C 6162 9191 6157 9181 6129 9158 C 6091 9126 6107 9120 6155 9150 C 6182 9167 6189 9168 6205 9157 C 6219 9146 6221 9140 6211 9122 C 6200 9101 6201 9100 6234 9100 C 6285 9100 6289 9081 6246 9044 L 6209 9012 L 6235 9006 C 6270 8997 6264 8970 6224 8950 C 6197 8936 6195 8932 6204 8908 C 6212 8886 6210 8877 6195 8860 C 6169 8832 6138 8835 6105 8870 C 6078 8898 6077 8901 6094 8918 C 6107 8933 6108 8943 6100 8964 C 6095 8979 6090 9001 6090 9014 C 6090 9032 6084 9036 6058 9037 C 6040 9037 6012 9042 5996 9049 C 5973 9058 5970 9063 5980 9075 C 5990 9087 5990 9090 5977 9090 C 5968 9090 5958 9086 5955 9080 C 5945 9063 5912 9069 5906 9088 C 5902 9098 5906 9125 5914 9148 C 5925 9177 5925 9187 5917 9184 C 5892 9174 5870 9129 5865 9079 C 5863 9051 5854 9020 5846 9011 C 5837 9001 5830 8988 5830 8980 C 5830 8970 5819 8969 5783 8975 C 5756 8980 5705 8984 5668 8984 C 5608 8985 5598 8982 5573 8958 C 5558 8943 5534 8910 5520 8885 C 5497 8842 5496 8838 5513 8829 C 5522 8823 5530 8814 5530 8808 C 5530 8802 5537 8789 5545 8780 C 5559 8765 5558 8762 5543 8747 C 5533 8739 5492 8718 5452 8702 C 5370 8669 5327 8671 5286 8709 C 5274 8721 5259 8730 5252 8730 C 5231 8730 5219 8767 5235 8780 C 5243 8787 5250 8803 5250 8817 C 5250 8831 5257 8843 5268 8846 C 5303 8857 5315 8868 5318 8889 C 5320 8902 5335 8919 5350 8928 C 5366 8937 5384 8954 5389 8965 C 5398 8983 5399 8983 5399 8958 C 5400 8940 5392 8925 5376 8915 C 5363 8906 5350 8887 5347 8872 C 5344 8856 5330 8838 5316 8830 C 5278 8810 5284 8798 5328 8806 C 5375 8814 5386 8823 5394 8860 C 5398 8884 5405 8890 5425 8890 C 5449 8890 5451 8893 5448 8923 C 5445 8954 5446 8955 5479 8952 C 5514 8948 5516 8953 5496 9001 C 5491 9013 5496 9019 5519 9023 C 5541 9028 5550 9035 5550 9049 C 5550 9059 5560 9075 5573 9084 C 5595 9101 5595 9101 5561 9095 C 5542 9092 5502 9087 5472 9083 C 5429 9078 5416 9073 5412 9057 C 5408 9042 5401 9039 5379 9044 C 5352 9049 5350 9048 5350 9015 C 5350 8987 5346 8980 5331 8980 C 5320 8980 5308 8985 5305 8990 C 5302 8996 5286 9000 5270 9000 C 5251 9000 5240 9006 5237 9018 C 5234 9027 5232 9019 5231 8999 C 5230 8974 5239 8952 5261 8922 C 5278 8899 5289 8876 5285 8870 C 5282 8865 5263 8860 5243 8860 C 5215 8860 5209 8857 5214 8844 C 5235 8788 5155 8765 5060 8799 C 5015 8814 5002 8825 4987 8855 C 4965 8900 4968 8924 4998 8928 C 5014 8930 5020 8938 5020 8955 C 5020 8994 5031 9010 5059 9010 C 5081 9011 5079 9013 5045 9025 C 4992 9044 4979 9039 4986 9000 C 4994 8962 4980 8961 4939 8998 C 4893 9039 4904 9060 4992 9096 C 5065 9125 5065 9125 5101 9198 C 5121 9238 5147 9278 5160 9287 C 5181 9302 5182 9308 5177 9368 C 5171 9430 5172 9434 5208 9486 C 5228 9515 5255 9543 5266 9549 C 5278 9554 5298 9578 5311 9601 C 5347 9665 5361 9662 5342 9594 C 5331 9554 5320 9536 5304 9530 C 5271 9517 5227 9454 5227 9417 C 5225 9338 5231 9270 5240 9270 C 5245 9270 5257 9295 5265 9325 C 5283 9387 5319 9420 5368 9420 C 5385 9420 5401 9424 5404 9428 C 5411 9440 5336 9442 5305 9430 C 5289 9424 5280 9424 5280 9430 C 5280 9442 5317 9480 5328 9480 C 5342 9480 5380 9546 5380 9571 C 5380 9584 5394 9615 5410 9639 C 5435 9675 5440 9693 5440 9741 C 5440 9795 5443 9802 5499 9878 C 5563 9965 5564 9965 5702 9985 C 5728 9989 5755 9998 5761 10006 C 5767 10014 5779 10020 5787 10020 C 5798 10020 5796 10011 5778 9979 z M 3846 9991 C 3867 9981 3912 9969 3945 9965 C 4022 9956 4029 9952 4079 9885 C 4133 9813 4148 9776 4148 9717 C 4147 9679 4152 9664 4172 9642 C 4186 9627 4205 9590 4214 9559 C 4230 9503 4243 9486 4283 9465 C 4294 9460 4305 9450 4307 9443 C 4310 9434 4295 9432 4246 9437 C 4199 9441 4180 9440 4180 9431 C 4180 9425 4192 9420 4208 9420 C 4261 9420 4296 9387 4320 9316 C 4332 9280 4345 9248 4350 9245 C 4354 9243 4360 9282 4363 9333 C 4367 9416 4365 9429 4344 9466 C 4331 9489 4305 9517 4286 9528 C 4258 9544 4250 9557 4242 9596 C 4236 9623 4233 9647 4235 9649 C 4243 9657 4268 9629 4274 9606 C 4277 9593 4300 9566 4325 9546 C 4350 9525 4381 9489 4395 9466 C 4418 9427 4419 9418 4410 9371 C 4399 9314 4404 9299 4442 9264 C 4455 9252 4474 9219 4485 9190 C 4509 9128 4511 9126 4597 9090 C 4675 9057 4687 9035 4644 9001 C 4612 8976 4601 8980 4608 9016 C 4613 9043 4613 9043 4566 9037 C 4540 9033 4514 9028 4509 9024 C 4493 9015 4510 9000 4536 9000 C 4556 9000 4560 8995 4560 8968 C 4560 8945 4568 8930 4586 8915 C 4611 8895 4611 8893 4598 8860 C 4585 8831 4574 8822 4526 8806 C 4481 8791 4460 8789 4422 8796 C 4376 8805 4375 8806 4378 8839 C 4381 8870 4380 8872 4356 8868 C 4320 8861 4302 8875 4318 8897 C 4324 8907 4340 8934 4352 8957 C 4371 8995 4372 9002 4360 9027 C 4347 9054 4346 9054 4342 9033 C 4340 9017 4331 9010 4317 9010 C 4305 9010 4286 9003 4276 8995 C 4247 8973 4240 8976 4240 9015 C 4240 9048 4238 9049 4211 9044 C 4188 9039 4182 9042 4177 9059 C 4173 9076 4164 9080 4133 9080 C 4112 9080 4073 9087 4046 9095 C 3989 9112 3979 9110 4014 9087 C 4027 9078 4040 9060 4042 9048 C 4044 9031 4051 9026 4067 9028 C 4097 9032 4105 9014 4086 8985 C 4064 8952 4065 8950 4106 8950 C 4140 8950 4141 8949 4138 8918 C 4135 8891 4139 8885 4160 8880 C 4178 8876 4185 8867 4185 8850 C 4185 8822 4211 8806 4273 8795 C 4322 8786 4323 8806 4275 8838 C 4250 8854 4240 8868 4240 8885 C 4240 8903 4233 8913 4215 8920 C 4196 8927 4190 8937 4190 8957 L 4191 8985 L 4206 8958 C 4214 8942 4225 8930 4231 8930 C 4236 8930 4248 8914 4256 8894 C 4266 8870 4281 8854 4301 8847 C 4321 8839 4330 8829 4330 8813 C 4330 8801 4335 8788 4340 8785 C 4360 8772 4349 8751 4306 8722 C 4240 8677 4228 8676 4153 8705 C 4053 8744 4044 8752 4060 8790 C 4067 8806 4076 8820 4081 8820 C 4101 8820 4088 8867 4054 8916 C 4028 8953 4006 8973 3983 8981 C 3951 8991 3928 8990 3809 8974 C 3770 8969 3762 8971 3756 8987 C 3753 8997 3743 9016 3735 9030 C 3727 9044 3720 9074 3720 9097 C 3720 9130 3713 9147 3689 9175 C 3649 9220 3632 9220 3659 9174 C 3687 9127 3688 9070 3661 9070 C 3650 9070 3638 9075 3635 9080 C 3624 9098 3602 9091 3607 9070 C 3612 9049 3589 9039 3528 9036 C 3502 9035 3497 9030 3494 9007 C 3493 8992 3488 8971 3485 8959 C 3481 8946 3485 8932 3496 8919 C 3513 8900 3512 8899 3485 8870 C 3451 8835 3422 8832 3392 8860 C 3366 8884 3365 8890 3384 8915 C 3396 8932 3394 8935 3366 8949 C 3327 8969 3324 9002 3360 9010 L 3385 9016 L 3353 9035 C 3323 9052 3306 9082 3318 9094 C 3321 9097 3339 9100 3359 9100 C 3386 9100 3391 9103 3382 9112 C 3375 9119 3370 9132 3370 9142 C 3370 9164 3408 9166 3436 9145 C 3446 9137 3463 9130 3473 9130 C 3487 9130 3483 9138 3456 9164 C 3415 9202 3416 9230 3459 9231 L 3485 9231 L 3460 9242 C 3404 9266 3391 9274 3385 9288 C 3374 9318 3421 9326 3485 9306 C 3502 9300 3505 9304 3506 9330 C 3507 9360 3506 9362 3476 9355 C 3405 9341 3395 9343 3397 9372 C 3399 9399 3398 9399 3367 9387 C 3345 9378 3334 9366 3332 9349 C 3330 9330 3320 9320 3295 9311 C 3276 9304 3260 9292 3260 9285 C 3260 9264 3194 9202 3168 9198 C 3155 9196 3140 9183 3132 9166 C 3124 9151 3105 9130 3089 9121 C 3073 9112 3058 9098 3055 9088 C 3052 9079 3038 9065 3025 9056 C 3011 9047 3000 9031 3000 9021 C 3000 9011 2993 8997 2985 8990 C 2977 8983 2970 8969 2970 8958 C 2970 8948 2963 8926 2955 8910 C 2941 8882 2941 8879 2960 8860 C 2979 8841 2979 8838 2965 8810 C 2951 8782 2951 8777 2966 8751 C 2982 8724 2982 8722 2951 8680 C 2910 8623 2911 8606 2960 8586 C 2982 8577 3000 8567 3000 8563 C 3000 8559 2988 8543 2973 8528 C 2943 8496 2898 8491 2866 8515 C 2825 8546 2796 8535 2687 8451 C 2630 8407 2628 8406 2613 8425 C 2604 8438 2601 8457 2605 8480 C 2608 8499 2612 8538 2613 8566 C 2615 8624 2637 8655 2733 8738 C 2816 8808 2821 8820 2770 8813 L 2730 8807 L 2730 8843 C 2730 8890 2770 8931 2868 8984 C 2941 9024 2962 9048 2914 9036 C 2879 9027 2853 9036 2847 9060 C 2842 9081 2873 9130 2893 9130 C 2900 9131 2919 9137 2935 9144 L 2965 9158 L 2917 9170 C 2891 9177 2867 9186 2865 9190 C 2862 9195 2880 9216 2904 9237 C 2936 9265 2965 9280 3007 9290 C 3082 9307 3089 9314 3060 9345 C 3037 9369 3037 9371 3055 9384 C 3065 9391 3104 9403 3142 9410 C 3179 9417 3210 9427 3210 9431 C 3210 9436 3192 9449 3170 9460 C 3108 9492 3116 9510 3221 9568 C 3256 9588 3292 9600 3314 9600 C 3357 9600 3361 9617 3321 9631 C 3248 9657 3298 9711 3427 9746 C 3539 9776 3546 9776 3581 9741 C 3617 9704 3618 9690 3583 9690 C 3538 9690 3528 9678 3536 9634 C 3546 9578 3551 9574 3566 9610 C 3579 9640 3583 9642 3616 9637 C 3648 9632 3679 9608 3680 9588 C 3680 9584 3668 9580 3653 9578 C 3629 9575 3625 9570 3622 9537 C 3619 9504 3614 9496 3586 9485 C 3554 9471 3530 9474 3478 9495 C 3452 9505 3455 9478 3481 9454 C 3498 9439 3518 9435 3586 9434 L 3670 9434 L 3706 9391 C 3726 9368 3744 9351 3746 9353 C 3748 9355 3743 9380 3734 9409 C 3717 9458 3718 9461 3736 9474 C 3752 9486 3753 9493 3744 9518 C 3735 9542 3735 9551 3746 9562 C 3757 9573 3752 9586 3715 9642 C 3669 9710 3660 9736 3683 9728 C 3689 9725 3725 9715 3763 9705 C 3825 9688 3835 9682 3886 9623 C 3917 9589 3950 9560 3960 9560 C 3970 9560 3995 9544 4016 9525 C 4036 9506 4054 9490 4056 9490 C 4065 9490 4046 9587 4034 9601 C 4024 9612 4020 9646 4020 9714 C 4020 9848 4003 9882 3923 9905 C 3869 9921 3800 9975 3800 10001 C 3800 10013 3800 10013 3846 9991 z M 3659 9910 C 3662 9910 3694 9878 3732 9839 C 3819 9748 3850 9754 3800 9852 C 3789 9873 3785 9892 3790 9895 C 3804 9904 3912 9859 3937 9834 C 3957 9814 3960 9801 3960 9731 C 3960 9687 3965 9639 3972 9625 C 4000 9563 3941 9591 3899 9661 C 3865 9715 3852 9723 3710 9771 C 3630 9799 3609 9811 3573 9849 C 3549 9874 3530 9900 3530 9907 C 3530 9922 3585 9928 3625 9918 C 3641 9913 3657 9910 3659 9910 z M 6048 9924 C 6080 9915 6076 9900 6023 9845 C 5980 9800 5965 9792 5870 9762 C 5749 9724 5732 9713 5687 9645 C 5668 9616 5646 9594 5634 9592 C 5613 9589 5613 9592 5617 9687 C 5623 9823 5630 9841 5686 9868 C 5766 9907 5852 9909 5805 9870 C 5790 9858 5767 9790 5775 9782 C 5784 9772 5831 9813 5856 9851 C 5894 9912 5976 9943 6048 9924 z M 5001 9715 C 5027 9672 5043 9671 5072 9710 C 5093 9739 5097 9740 5172 9740 C 5215 9740 5250 9736 5250 9731 C 5250 9709 5175 9600 5160 9600 C 5151 9600 5099 9607 5044 9615 C 4915 9634 4676 9634 4543 9614 C 4485 9606 4432 9601 4424 9604 C 4408 9610 4340 9710 4340 9727 C 4340 9736 4362 9740 4420 9740 C 4496 9740 4501 9739 4512 9715 C 4527 9682 4561 9671 4575 9695 C 4606 9750 4607 9750 4800 9750 L 4981 9750 L 5001 9715 z M 4858 9535 C 4866 9528 4809 9450 4796 9450 C 4781 9450 4740 9504 4740 9524 C 4740 9532 4746 9541 4753 9544 C 4766 9550 4850 9543 4858 9535 z M 4680 9473 C 4751 9393 4754 9386 4741 9335 C 4732 9298 4732 9284 4745 9260 C 4769 9213 4764 9188 4720 9145 C 4681 9107 4681 9107 4640 9120 C 4592 9136 4588 9150 4632 9150 C 4691 9150 4718 9200 4684 9248 C 4672 9266 4669 9284 4674 9324 C 4680 9372 4678 9380 4655 9409 C 4624 9445 4603 9448 4566 9419 C 4535 9395 4533 9370 4559 9346 C 4582 9325 4600 9332 4600 9363 C 4600 9383 4601 9383 4616 9368 C 4630 9354 4631 9347 4621 9322 C 4614 9306 4597 9287 4583 9279 C 4559 9266 4556 9267 4530 9298 C 4491 9344 4470 9403 4484 9422 C 4495 9437 4620 9519 4632 9520 C 4635 9520 4657 9499 4680 9473 z M 4999 9498 C 5070 9455 5110 9419 5110 9397 C 5110 9368 5050 9276 5028 9272 C 5001 9267 4958 9316 4962 9347 C 4966 9382 4990 9390 4990 9356 C 4990 9321 5027 9320 5040 9355 C 5052 9387 5044 9408 5011 9424 C 4979 9441 4947 9430 4924 9395 C 4910 9373 4909 9364 4920 9325 C 4931 9285 4930 9279 4911 9254 C 4870 9202 4893 9150 4956 9150 C 4975 9150 4990 9146 4990 9140 C 4990 9135 4981 9130 4971 9130 C 4960 9130 4948 9126 4945 9120 C 4931 9097 4891 9111 4861 9149 C 4826 9193 4823 9217 4846 9262 C 4859 9288 4860 9299 4850 9336 C 4839 9374 4840 9383 4855 9406 C 4875 9437 4950 9520 4958 9520 C 4960 9520 4979 9510 4999 9498 z M 3387 9248 C 3416 9221 3417 9193 3389 9185 C 3362 9176 3320 9214 3320 9247 C 3320 9277 3355 9278 3387 9248 z M 6277 9255 C 6288 9224 6219 9170 6194 9191 C 6175 9206 6176 9212 6201 9244 C 6224 9273 6267 9279 6277 9255 z M 3334 9177 C 3358 9140 3290 9101 3254 9131 C 3234 9148 3236 9198 3258 9202 C 3285 9208 3322 9196 3334 9177 z M 6331 9200 C 6354 9187 6355 9163 6333 9138 C 6304 9106 6250 9121 6250 9161 C 6250 9178 6285 9210 6303 9210 C 6308 9210 6320 9205 6331 9200 z M 3245 9124 C 3257 9111 3258 9105 3249 9093 C 3224 9064 3200 9057 3179 9076 C 3155 9097 3155 9116 3178 9129 C 3203 9144 3226 9142 3245 9124 z M 6411 9130 C 6438 9115 6435 9082 6405 9068 C 6386 9059 6376 9060 6355 9074 C 6326 9093 6323 9115 6348 9129 C 6370 9142 6387 9142 6411 9130 z M 6350 9061 C 6355 9050 6360 9031 6360 9019 C 6360 9001 6363 9000 6375 9010 C 6392 9024 6430 9014 6430 8995 C 6430 8987 6420 8976 6408 8969 C 6389 8959 6388 8957 6404 8948 C 6415 8942 6419 8932 6415 8919 C 6411 8906 6413 8900 6424 8900 C 6448 8900 6471 8860 6459 8838 C 6451 8824 6453 8820 6468 8820 C 6493 8820 6512 8797 6504 8776 C 6492 8745 6440 8764 6440 8800 C 6440 8808 6430 8820 6418 8825 C 6404 8831 6394 8845 6392 8860 C 6390 8875 6380 8890 6368 8895 C 6340 8908 6335 8925 6353 8941 C 6364 8952 6365 8959 6356 8975 C 6350 8986 6344 8996 6343 8998 C 6342 9000 6333 8997 6322 8991 C 6284 8971 6264 9026 6297 9062 C 6318 9085 6337 9085 6350 9061 z M 3148 9061 C 3168 9049 3158 9015 3134 9012 C 3104 9008 3075 9037 3091 9056 C 3104 9072 3128 9074 3148 9061 z M 3298 9058 C 3314 9042 3313 8993 3298 8987 C 3291 8985 3275 8987 3263 8991 C 3240 9000 3234 8991 3238 8950 C 3241 8920 3229 8890 3215 8890 C 3206 8890 3200 8880 3200 8865 C 3200 8851 3192 8836 3181 8830 C 3155 8816 3152 8817 3140 8840 C 3127 8865 3143 8900 3167 8900 C 3180 8900 3181 8903 3173 8911 C 3158 8926 3168 8950 3189 8950 C 3201 8950 3199 8955 3181 8969 C 3147 8995 3159 9025 3200 9016 C 3226 9011 3230 9013 3230 9034 C 3230 9046 3233 9060 3237 9063 C 3248 9074 3285 9071 3298 9058 z M 6495 9040 C 6495 9020 6489 9014 6467 9012 C 6435 9008 6421 9032 6441 9056 C 6460 9080 6495 9070 6495 9040 z M 3139 8976 C 3163 8947 3122 8912 3086 8932 C 3067 8943 3065 8976 3083 8983 C 3106 8993 3128 8990 3139 8976 z M 6504 8984 C 6528 8975 6523 8941 6498 8931 C 6471 8921 6440 8937 6440 8962 C 6440 8985 6472 8996 6504 8984 z M 3341 8928 C 3364 8885 3323 8842 3279 8863 C 3247 8880 3243 8907 3270 8935 C 3294 8961 3325 8958 3341 8928 z M 6322 8928 C 6328 8915 6334 8897 6334 8887 C 6335 8877 6346 8864 6360 8857 C 6379 8847 6384 8837 6382 8817 C 6381 8802 6384 8790 6389 8790 C 6405 8790 6430 8760 6430 8740 C 6430 8716 6384 8707 6364 8728 C 6354 8737 6351 8752 6354 8766 C 6359 8783 6356 8790 6347 8790 C 6326 8790 6299 8825 6306 8844 C 6311 8857 6306 8860 6282 8860 C 6252 8860 6240 8874 6240 8909 C 6240 8952 6301 8966 6322 8928 z M 3108 8884 C 3110 8870 3103 8860 3086 8852 C 3064 8842 3059 8843 3050 8860 C 3043 8874 3044 8883 3056 8895 C 3077 8916 3104 8910 3108 8884 z M 6534 8891 C 6553 8870 6546 8840 6520 8840 C 6496 8840 6468 8874 6476 8894 C 6484 8915 6513 8914 6534 8891 z M 3588 8860 C 3626 8836 3623 8826 3564 8789 C 3528 8767 3502 8770 3474 8797 C 3460 8811 3462 8816 3491 8846 C 3529 8885 3543 8887 3588 8860 z M 6089 8854 C 6128 8821 6129 8796 6090 8780 C 6063 8769 6056 8770 6019 8795 C 5966 8832 5965 8835 5996 8859 C 6031 8887 6052 8885 6089 8854 z M 3266 8845 C 3285 8830 3285 8830 3261 8810 C 3234 8787 3222 8788 3206 8814 C 3197 8827 3199 8834 3214 8846 C 3239 8864 3242 8863 3266 8845 z M 3395 8830 C 3431 8791 3377 8747 3320 8770 C 3286 8784 3282 8801 3307 8830 C 3329 8855 3372 8856 3395 8830 z M 6280 8830 C 6306 8807 6301 8785 6265 8768 C 6212 8744 6157 8797 6199 8832 C 6229 8855 6251 8855 6280 8830 z M 3146 8805 C 3154 8785 3133 8760 3108 8760 C 3084 8760 3074 8786 3090 8805 C 3106 8824 3139 8824 3146 8805 z M 3699 8784 C 3724 8752 3718 8735 3665 8705 C 3616 8676 3600 8674 3560 8695 C 3518 8716 3522 8734 3578 8775 C 3635 8817 3671 8820 3699 8784 z M 6006 8778 C 6069 8736 6071 8711 6014 8691 C 5976 8678 5972 8678 5926 8705 C 5867 8739 5861 8754 5890 8786 C 5921 8818 5948 8816 6006 8778 z M 4846 8780 C 4867 8772 4871 8765 4867 8744 C 4863 8722 4868 8716 4914 8696 C 4969 8671 5026 8618 5016 8601 C 5012 8595 4996 8593 4980 8597 C 4963 8600 4950 8600 4950 8596 C 4950 8585 5022 8560 5053 8560 C 5090 8560 5130 8526 5130 8495 C 5130 8459 5020 8251 4991 8232 C 4956 8208 4651 8207 4605 8230 C 4562 8251 4455 8463 4464 8507 C 4471 8539 4503 8560 4546 8560 C 4572 8560 4655 8598 4647 8606 C 4645 8608 4630 8606 4615 8600 C 4597 8593 4583 8593 4577 8599 C 4560 8616 4601 8659 4663 8689 C 4716 8715 4724 8722 4725 8746 C 4725 8795 4772 8808 4846 8780 z M 3231 8769 C 3240 8751 3239 8744 3224 8729 C 3199 8705 3160 8714 3160 8744 C 3160 8789 3210 8807 3231 8769 z M 6191 8749 C 6197 8738 6199 8722 6196 8714 C 6193 8706 6197 8700 6207 8700 C 6226 8700 6249 8672 6250 8649 C 6250 8620 6199 8618 6171 8645 C 6149 8666 6148 8671 6161 8686 C 6174 8702 6173 8703 6152 8698 C 6136 8693 6123 8698 6110 8713 C 6083 8742 6086 8756 6125 8778 C 6148 8790 6174 8779 6191 8749 z M 3488 8752 C 3493 8722 3474 8700 3443 8700 C 3422 8700 3421 8697 3430 8680 C 3438 8665 3436 8656 3420 8640 C 3399 8619 3383 8616 3356 8626 C 3325 8638 3349 8700 3384 8700 C 3397 8700 3400 8705 3395 8721 C 3385 8751 3417 8782 3454 8778 C 3478 8776 3486 8769 3488 8752 z M 3344 8738 C 3352 8724 3350 8716 3334 8700 C 3317 8683 3309 8681 3287 8689 C 3251 8703 3241 8729 3266 8747 C 3290 8765 3330 8760 3344 8738 z M 6330 8740 C 6337 8727 6338 8714 6331 8702 C 6324 8690 6326 8680 6337 8668 C 6356 8647 6347 8620 6322 8620 C 6298 8620 6280 8639 6280 8666 C 6280 8679 6272 8690 6260 8693 C 6248 8696 6240 8707 6240 8719 C 6240 8759 6311 8775 6330 8740 z M 3125 8704 C 3125 8694 3117 8684 3108 8682 C 3090 8679 3082 8709 3097 8724 C 3109 8735 3125 8724 3125 8704 z M 6500 8705 C 6500 8686 6480 8676 6468 8688 C 6453 8703 6466 8731 6485 8724 C 6493 8721 6500 8712 6500 8705 z M 3764 8694 C 3774 8680 3780 8662 3778 8653 C 3773 8629 3693 8590 3648 8590 C 3611 8590 3609 8592 3612 8617 C 3614 8636 3630 8656 3665 8682 C 3724 8727 3742 8729 3764 8694 z M 5897 8699 C 6009 8638 6005 8561 5891 8600 C 5826 8622 5806 8640 5815 8669 C 5821 8688 5846 8720 5855 8720 C 5858 8720 5876 8711 5897 8699 z M 3225 8690 C 3236 8672 3219 8640 3194 8634 C 3171 8628 3140 8643 3140 8661 C 3140 8690 3210 8714 3225 8690 z M 6434 8684 C 6457 8661 6454 8641 6425 8634 C 6381 8623 6350 8649 6364 8685 C 6371 8705 6414 8704 6434 8684 z M 3563 8662 C 3585 8642 3585 8635 3558 8610 C 3533 8587 3473 8583 3446 8603 C 3431 8614 3429 8620 3439 8638 C 3464 8684 3523 8696 3563 8662 z M 6127 8656 C 6160 8626 6163 8620 6150 8605 C 6139 8592 6125 8589 6087 8593 C 6005 8600 5986 8644 6051 8677 C 6084 8695 6086 8694 6127 8656 z M 3308 8641 C 3306 8631 3311 8615 3319 8606 C 3339 8583 3322 8556 3286 8552 C 3249 8547 3239 8577 3269 8602 C 3292 8620 3292 8620 3271 8620 C 3242 8620 3232 8649 3255 8666 C 3278 8683 3312 8666 3308 8641 z M 3140 8621 C 3140 8609 3120 8596 3113 8603 C 3106 8610 3119 8630 3131 8630 C 3136 8630 3140 8626 3140 8621 z M 3230 8594 C 3230 8586 3222 8572 3211 8561 C 3199 8549 3194 8534 3197 8516 C 3201 8498 3197 8488 3185 8484 C 3160 8474 3143 8496 3158 8520 C 3167 8536 3167 8541 3154 8548 C 3132 8560 3145 8599 3173 8609 C 3201 8619 3230 8611 3230 8594 z M 4394 8614 C 4419 8604 4413 8592 4380 8585 C 4346 8578 4341 8566 4368 8555 C 4383 8549 4382 8547 4360 8535 C 4341 8524 4339 8521 4353 8520 C 4376 8520 4375 8504 4350 8487 C 4330 8473 4330 8473 4357 8467 C 4372 8464 4391 8451 4399 8439 C 4411 8419 4410 8414 4390 8398 C 4368 8380 4368 8380 4388 8380 C 4412 8380 4426 8364 4408 8357 C 4400 8353 4404 8349 4418 8345 C 4440 8338 4449 8320 4429 8320 C 4424 8320 4422 8316 4425 8310 C 4428 8305 4442 8300 4455 8300 C 4472 8300 4478 8296 4474 8286 C 4471 8278 4479 8265 4491 8256 L 4513 8241 L 4486 8230 C 4448 8216 4449 8216 4389 8259 C 4320 8308 4176 8383 4097 8412 C 4063 8424 4027 8442 4017 8452 C 4007 8462 3992 8470 3983 8470 C 3970 8470 3970 8473 3980 8485 C 3990 8498 3989 8500 3972 8500 C 3960 8500 3948 8505 3945 8510 C 3942 8516 3944 8520 3949 8520 C 3955 8520 3960 8525 3960 8530 C 3960 8536 3949 8540 3935 8540 C 3921 8540 3910 8544 3910 8549 C 3910 8566 4019 8597 4125 8609 C 4212 8619 4373 8622 4394 8614 z M 5567 8590 C 5660 8568 5710 8540 5656 8540 C 5642 8540 5630 8536 5630 8530 C 5630 8525 5637 8520 5646 8520 C 5654 8520 5658 8516 5655 8510 C 5652 8505 5640 8500 5628 8500 C 5615 8500 5610 8495 5613 8486 C 5617 8476 5611 8468 5597 8464 C 5585 8460 5571 8451 5565 8445 C 5560 8438 5537 8427 5515 8420 C 5443 8398 5289 8321 5222 8274 C 5161 8232 5111 8216 5092 8234 C 5088 8238 5093 8247 5102 8254 C 5111 8261 5118 8275 5117 8285 C 5116 8296 5122 8305 5130 8306 C 5160 8308 5162 8310 5150 8325 C 5140 8338 5141 8340 5158 8340 C 5182 8340 5196 8356 5178 8363 C 5170 8366 5175 8372 5189 8377 C 5205 8383 5209 8389 5202 8394 C 5186 8403 5187 8443 5202 8458 C 5209 8465 5225 8470 5239 8470 L 5264 8470 L 5242 8486 C 5216 8504 5213 8520 5238 8520 C 5251 8521 5250 8524 5231 8534 C 5208 8547 5208 8548 5226 8558 C 5242 8568 5243 8571 5230 8580 C 5222 8585 5207 8590 5198 8590 C 5177 8590 5174 8606 5193 8614 C 5222 8628 5477 8611 5567 8590 z M 6338 8572 C 6334 8551 6294 8544 6274 8560 C 6257 8575 6256 8607 6273 8613 C 6294 8620 6342 8590 6338 8572 z M 3830 8564 C 3860 8499 3851 8493 3744 8507 C 3648 8519 3626 8531 3653 8557 C 3674 8578 3746 8608 3781 8609 C 3803 8610 3811 8602 3830 8564 z M 5866 8592 C 5976 8546 5970 8522 5846 8507 C 5745 8494 5734 8499 5751 8551 C 5773 8616 5792 8623 5866 8592 z M 6434 8594 C 6454 8575 6454 8565 6436 8548 C 6426 8538 6425 8528 6432 8517 C 6443 8496 6434 8480 6410 8480 C 6385 8480 6375 8511 6395 8526 C 6410 8537 6410 8539 6392 8549 C 6370 8561 6357 8587 6366 8601 C 6375 8615 6417 8611 6434 8594 z M 3422 8583 C 3439 8568 3439 8566 3424 8548 C 3403 8526 3352 8524 3343 8545 C 3337 8563 3366 8600 3388 8600 C 3397 8600 3412 8593 3422 8583 z M 6231 8579 C 6257 8553 6251 8536 6214 8532 C 6194 8530 6178 8536 6167 8548 C 6150 8566 6150 8569 6165 8584 C 6187 8605 6206 8604 6231 8579 z M 3598 8571 C 3606 8566 3610 8554 3608 8544 C 3605 8528 3595 8525 3535 8525 C 3479 8525 3465 8528 3462 8541 C 3461 8549 3469 8562 3482 8568 C 3510 8581 3580 8583 3598 8571 z M 6101 8564 C 6146 8541 6132 8525 6063 8522 C 5999 8519 5974 8533 5986 8564 C 5994 8585 6060 8585 6101 8564 z M 3318 8519 C 3320 8507 3311 8500 3284 8496 C 3238 8487 3217 8503 3246 8525 C 3270 8544 3314 8540 3318 8519 z M 6338 8528 C 6363 8503 6352 8489 6313 8496 C 6266 8504 6250 8517 6270 8530 C 6291 8543 6324 8542 6338 8528 z M 3781 8450 C 3967 8412 4161 8330 4323 8222 C 4441 8143 4452 8122 4360 8155 C 4336 8163 4315 8168 4312 8166 C 4310 8163 4329 8139 4354 8113 C 4395 8072 4399 8065 4381 8062 C 4370 8060 4348 8066 4331 8074 C 4278 8102 4274 8091 4320 8045 C 4367 7997 4369 7983 4326 8000 C 4278 8018 4276 8011 4321 7973 C 4415 7891 4425 7881 4419 7876 C 4416 7872 4394 7877 4370 7885 C 4347 7893 4325 7900 4321 7900 C 4318 7899 4342 7875 4375 7845 C 4435 7791 4443 7766 4394 7789 C 4358 7805 4353 7796 4382 7768 C 4417 7735 4453 7680 4440 7680 C 4434 7680 4391 7708 4345 7743 C 4299 7777 4246 7814 4228 7825 C 4004 7958 3882 7998 3674 8007 C 3525 8014 3412 8000 3303 7964 C 3222 7937 3220 7936 3220 7950 C 3220 7955 3250 7980 3288 8006 L 3355 8052 L 3305 8046 C 3278 8043 3238 8037 3218 8034 C 3161 8025 3172 8043 3248 8083 C 3319 8122 3311 8128 3218 8106 C 3165 8093 3150 8094 3150 8110 C 3150 8114 3172 8129 3200 8144 C 3258 8176 3276 8196 3236 8186 C 3178 8172 3120 8167 3120 8178 C 3120 8184 3146 8205 3178 8225 L 3235 8261 L 3161 8255 C 3072 8247 3069 8260 3149 8303 C 3178 8319 3199 8334 3196 8337 C 3194 8340 3159 8336 3121 8329 C 2998 8307 3014 8338 3155 8392 C 3356 8470 3582 8490 3781 8450 z M 6170 8460 C 6285 8442 6373 8418 6459 8381 C 6562 8337 6579 8314 6500 8324 C 6471 8328 6434 8334 6419 8337 C 6371 8346 6387 8327 6450 8298 C 6483 8283 6510 8266 6510 8260 C 6510 8248 6462 8248 6403 8259 C 6380 8264 6358 8265 6356 8262 C 6353 8259 6374 8243 6402 8226 C 6471 8184 6478 8165 6419 8174 C 6298 8192 6300 8193 6372 8156 C 6479 8099 6478 8079 6369 8104 C 6267 8127 6257 8124 6325 8090 C 6382 8061 6424 8030 6417 8023 C 6415 8022 6388 8027 6356 8035 C 6325 8043 6285 8050 6268 8050 C 6237 8050 6237 8049 6296 8008 C 6330 7984 6356 7961 6356 7955 C 6355 7942 6353 7943 6245 7976 C 6160 8003 6145 8005 5970 8004 C 5770 8004 5710 7994 5566 7934 C 5464 7891 5281 7782 5251 7746 C 5237 7730 5148 7670 5137 7670 C 5121 7670 5133 7688 5179 7740 C 5206 7770 5227 7796 5226 7798 C 5224 7799 5210 7796 5195 7790 C 5148 7772 5153 7790 5208 7839 C 5236 7864 5260 7888 5260 7893 C 5260 7897 5244 7893 5224 7885 C 5146 7853 5151 7873 5240 7950 C 5314 8013 5315 8016 5261 8000 C 5242 7995 5224 7992 5222 7995 C 5220 7997 5240 8019 5266 8044 C 5317 8092 5314 8100 5253 8075 C 5186 8047 5181 8064 5241 8120 C 5286 8162 5283 8174 5229 8156 C 5172 8136 5166 8149 5214 8186 C 5239 8205 5262 8220 5265 8220 C 5268 8220 5281 8229 5292 8240 C 5316 8262 5498 8353 5600 8394 C 5761 8458 6004 8486 6170 8460 z M 2874 8269 C 2934 8119 3060 7902 3167 7767 C 3246 7666 3400 7515 3498 7443 C 3588 7376 3743 7296 3853 7260 C 3891 7247 3919 7232 3917 7226 C 3913 7215 3859 7215 3813 7225 C 3777 7233 3786 7217 3835 7188 C 3889 7155 3895 7134 3848 7144 C 3830 7148 3795 7153 3770 7157 L 3725 7163 L 3754 7132 C 3786 7097 3783 7081 3743 7087 L 3715 7091 L 3750 7061 C 3769 7044 3788 7030 3792 7030 C 3796 7030 3800 7023 3800 7014 C 3800 7001 3793 6999 3765 7003 C 3710 7012 3725 6992 3803 6952 C 3840 6933 3838 6912 3798 6908 L 3765 6905 L 3818 6877 C 3846 6862 3870 6845 3870 6839 C 3870 6824 3748 6833 3676 6854 C 3476 6911 3191 7074 3036 7220 C 2891 7357 2717 7597 2742 7627 C 2751 7638 2746 7656 2719 7705 C 2695 7751 2688 7772 2696 7780 C 2703 7787 2714 7780 2733 7753 C 2768 7704 2767 7714 2730 7788 C 2714 7822 2700 7863 2700 7881 L 2700 7913 L 2725 7890 C 2739 7877 2750 7861 2750 7853 C 2750 7846 2755 7840 2760 7840 C 2773 7840 2774 7837 2740 7905 C 2712 7963 2700 8030 2719 8030 C 2724 8030 2745 8008 2765 7980 C 2785 7953 2804 7930 2806 7930 C 2808 7930 2803 7947 2794 7968 C 2767 8029 2741 8104 2740 8122 C 2740 8146 2764 8135 2780 8104 C 2801 8067 2802 8081 2784 8149 C 2762 8235 2777 8270 2812 8213 C 2828 8186 2828 8188 2823 8269 C 2815 8375 2832 8375 2874 8269 z M 6764 8266 L 6763 8199 L 6786 8227 C 6806 8253 6809 8253 6816 8236 C 6822 8220 6816 8184 6794 8100 L 6787 8075 L 6809 8103 C 6865 8172 6859 8108 6797 7973 C 6778 7931 6798 7938 6830 7985 C 6854 8020 6865 8029 6873 8021 C 6882 8012 6879 7992 6862 7944 C 6837 7872 6838 7855 6864 7895 C 6901 7952 6909 7898 6874 7826 C 6855 7787 6856 7781 6880 7787 C 6907 7794 6906 7777 6872 7705 C 6850 7660 6846 7640 6853 7629 C 6861 7616 6854 7596 6826 7544 C 6779 7459 6771 7449 6654 7323 C 6536 7196 6447 7123 6305 7038 C 6121 6928 6009 6878 5870 6844 C 5805 6828 5720 6826 5720 6840 C 5720 6845 5744 6862 5773 6877 C 5824 6904 5825 6904 5796 6909 C 5753 6918 5755 6932 5805 6963 C 5858 6997 5862 7008 5819 7006 C 5773 7004 5774 7021 5820 7048 C 5865 7074 5874 7096 5835 7086 C 5804 7078 5802 7095 5832 7127 C 5844 7140 5851 7152 5848 7155 C 5846 7158 5819 7156 5790 7150 C 5685 7130 5671 7143 5750 7187 C 5777 7202 5800 7218 5800 7222 C 5800 7228 5755 7225 5707 7215 C 5685 7211 5660 7219 5660 7230 C 5660 7235 5693 7248 5733 7261 C 5904 7313 6055 7404 6228 7559 C 6307 7630 6346 7674 6463 7820 C 6532 7907 6720 8248 6720 8287 C 6720 8311 6741 8342 6753 8337 C 6761 8334 6765 8309 6764 8266 z M 5043 8173 C 5054 8162 5059 8148 5056 8134 C 5052 8118 5057 8108 5075 8096 C 5093 8084 5100 8071 5100 8046 C 5100 8028 5107 7998 5116 7981 C 5138 7936 5123 7905 5073 7891 C 5051 7885 4930 7880 4787 7880 C 4492 7880 4470 7885 4470 7949 C 4470 7971 4475 7992 4480 7995 C 4486 7998 4490 8019 4490 8041 C 4490 8069 4496 8083 4510 8092 C 4522 8100 4530 8116 4530 8130 C 4530 8194 4546 8197 4845 8192 C 4996 8190 5027 8187 5043 8173 z M 3774 7916 C 4067 7859 4401 7646 4666 7344 C 4726 7276 4734 7254 4694 7264 C 4670 7270 4669 7269 4676 7234 L 4683 7197 L 4651 7219 C 4614 7245 4613 7241 4642 7189 C 4668 7143 4660 7129 4619 7152 C 4586 7171 4585 7170 4602 7123 C 4617 7082 4609 7074 4575 7096 L 4548 7114 L 4568 7073 C 4592 7026 4588 7014 4554 7037 C 4527 7054 4524 7046 4545 7010 C 4565 6974 4563 6967 4535 6974 C 4508 6981 4505 6974 4520 6935 C 4534 6899 4523 6884 4499 6906 C 4481 6922 4481 6921 4487 6871 C 4491 6838 4489 6820 4482 6820 C 4476 6820 4446 6856 4415 6901 C 4384 6945 4351 6989 4342 6999 C 4290 7053 4240 7112 4240 7120 C 4240 7125 4247 7127 4255 7124 C 4265 7120 4268 7122 4264 7131 C 4254 7155 4124 7250 4048 7289 C 3996 7316 4027 7332 4086 7310 C 4109 7301 4111 7301 4101 7314 C 4094 7322 4031 7347 3959 7370 C 3888 7393 3832 7416 3835 7421 C 3839 7426 3867 7430 3898 7430 C 3973 7431 3949 7445 3844 7462 C 3801 7469 3766 7480 3767 7485 C 3768 7491 3787 7499 3810 7503 C 3875 7516 3846 7530 3754 7530 C 3707 7530 3670 7534 3670 7540 C 3670 7555 3705 7570 3742 7571 C 3774 7571 3774 7572 3750 7582 C 3736 7587 3693 7590 3653 7587 C 3577 7581 3549 7593 3597 7610 C 3666 7635 3665 7639 3590 7637 C 3549 7636 3514 7639 3512 7644 C 3510 7650 3528 7662 3552 7671 L 3595 7689 L 3528 7689 C 3490 7690 3460 7694 3460 7699 C 3460 7704 3477 7715 3498 7724 L 3535 7741 L 3458 7735 C 3367 7728 3358 7739 3425 7771 C 3450 7783 3469 7794 3467 7796 C 3465 7798 3438 7795 3407 7789 C 3312 7772 3308 7793 3396 7835 C 3439 7856 3442 7859 3418 7859 C 3403 7860 3368 7855 3341 7849 C 3264 7833 3249 7841 3305 7869 C 3422 7927 3613 7946 3774 7916 z M 6154 7915 C 6227 7898 6304 7867 6314 7851 C 6323 7837 6301 7837 6246 7851 C 6222 7857 6192 7860 6179 7858 C 6159 7855 6165 7849 6213 7827 C 6287 7793 6281 7776 6199 7785 C 6166 7789 6140 7789 6140 7786 C 6140 7783 6156 7774 6175 7766 C 6236 7740 6219 7728 6133 7734 L 6055 7740 L 6093 7723 C 6113 7715 6130 7703 6130 7699 C 6130 7694 6097 7690 6058 7690 L 5985 7689 L 6034 7672 C 6061 7662 6086 7648 6088 7641 C 6092 7629 6078 7628 6015 7633 C 5937 7639 5927 7633 5981 7615 C 6034 7597 6007 7585 5913 7585 C 5863 7585 5818 7582 5814 7578 C 5810 7573 5821 7570 5838 7570 C 5872 7570 5920 7552 5920 7538 C 5920 7534 5887 7530 5848 7529 C 5808 7529 5766 7525 5755 7521 C 5739 7514 5743 7511 5778 7504 C 5802 7499 5823 7491 5823 7485 C 5824 7480 5794 7470 5755 7463 C 5717 7457 5674 7447 5660 7441 C 5639 7433 5645 7431 5698 7431 C 5732 7430 5760 7426 5760 7420 C 5760 7415 5734 7403 5703 7395 C 5588 7363 5440 7300 5517 7315 C 5577 7327 5573 7308 5508 7272 C 5436 7231 5306 7131 5314 7122 C 5318 7119 5326 7122 5332 7128 C 5339 7135 5348 7140 5352 7140 C 5369 7140 5358 7118 5322 7077 C 5126 6862 5038 6660 5054 6467 C 5061 6388 5079 6310 5091 6310 C 5095 6310 5098 6363 5098 6428 C 5099 6505 5105 6564 5115 6600 C 5124 6630 5137 6673 5143 6695 C 5174 6799 5261 6917 5296 6903 C 5335 6889 5361 6867 5355 6853 C 5352 6845 5347 6827 5344 6814 C 5330 6758 5416 6803 5460 6875 C 5479 6905 5480 6914 5470 6975 C 5464 7011 5462 7045 5465 7051 C 5477 7070 5509 7059 5531 7029 L 5552 6998 L 5582 7035 C 5603 7060 5619 7070 5634 7068 C 5669 7063 5668 7029 5630 6935 C 5626 6924 5610 6881 5595 6840 L 5569 6765 L 5594 6745 C 5608 6734 5637 6715 5659 6703 L 5698 6681 L 5735 6710 C 5780 6746 5782 6746 5805 6720 C 5823 6700 5823 6699 5802 6671 C 5791 6655 5782 6630 5782 6614 C 5783 6585 5745 6510 5730 6510 C 5726 6510 5679 6524 5625 6540 C 5510 6575 5491 6576 5415 6550 C 5383 6539 5353 6530 5348 6530 C 5327 6530 5330 6562 5355 6595 C 5370 6614 5380 6630 5377 6630 C 5345 6630 5271 6539 5251 6474 C 5229 6406 5240 6266 5273 6197 C 5315 6108 5378 6046 5461 6015 L 5530 5988 L 5616 6030 C 5691 6066 5706 6070 5725 6060 C 5749 6047 5792 6050 5902 6070 C 5967 6082 5971 6082 6005 6059 C 6047 6030 6049 6015 6013 5984 C 5983 5958 5829 5880 5808 5880 C 5800 5880 5784 5888 5770 5897 C 5745 5915 5668 5920 5635 5907 C 5617 5899 5618 5897 5648 5885 C 5691 5866 5700 5842 5672 5819 C 5660 5810 5597 5784 5532 5763 C 5370 5710 5321 5711 5216 5768 C 5173 5791 5135 5808 5133 5806 C 5130 5803 5133 5771 5139 5734 C 5146 5697 5147 5664 5143 5660 C 5135 5653 5050 5635 4972 5625 C 4948 5622 4912 5622 4893 5626 C 4839 5636 4828 5673 4832 5836 C 4835 5985 4832 5980 4918 5972 C 4954 5968 4961 5964 4966 5941 C 4969 5927 4977 5902 4985 5885 L 4999 5855 L 5000 5905 C 5001 5969 5006 5976 5058 5985 C 5101 5992 5120 6011 5120 6046 C 5120 6068 5039 6227 4990 6300 C 4970 6330 4941 6376 4926 6403 C 4911 6429 4894 6450 4887 6450 C 4861 6450 4730 6221 4730 6175 C 4730 6161 4788 6151 4814 6160 C 4823 6163 4839 6180 4850 6198 C 4861 6215 4874 6230 4879 6230 C 4894 6230 4952 6129 4946 6114 C 4942 6103 4908 6100 4785 6101 C 4700 6101 4630 6105 4630 6110 C 4630 6120 4732 6309 4805 6435 C 4838 6494 4849 6522 4845 6540 C 4842 6554 4837 6594 4834 6630 C 4828 6697 4813 6750 4800 6750 C 4796 6750 4790 6721 4788 6685 C 4782 6616 4744 6526 4707 6493 C 4688 6475 4688 6476 4692 6543 C 4694 6580 4693 6610 4689 6610 C 4686 6610 4675 6570 4666 6520 C 4643 6403 4606 6307 4531 6169 C 4498 6107 4470 6046 4470 6034 C 4470 6007 4499 5985 4548 5975 L 4580 5968 L 4580 5897 C 4580 5823 4589 5818 4609 5882 C 4630 5947 4655 5970 4706 5970 C 4793 5970 4809 5912 4771 5741 C 4746 5632 4738 5624 4647 5627 C 4552 5629 4450 5649 4443 5666 C 4440 5674 4443 5708 4449 5742 C 4455 5776 4458 5806 4455 5808 C 4452 5811 4432 5801 4410 5786 C 4388 5772 4366 5760 4361 5760 C 4357 5760 4331 5750 4305 5739 C 4267 5722 4245 5719 4206 5724 C 4158 5729 3988 5782 3928 5810 C 3891 5827 3892 5857 3930 5878 C 3946 5887 3960 5898 3960 5901 C 3960 5918 3863 5916 3826 5898 C 3804 5888 3782 5880 3778 5880 C 3756 5880 3601 5961 3570 5989 L 3535 6020 L 3565 6045 C 3608 6081 3632 6085 3708 6066 C 3787 6047 3843 6045 3869 6062 C 3885 6071 3900 6068 3956 6041 C 4050 5996 4075 5993 4141 6022 C 4212 6052 4229 6065 4273 6123 C 4312 6174 4350 6283 4350 6343 C 4350 6384 4324 6504 4308 6534 C 4295 6561 4229 6630 4217 6630 C 4212 6630 4219 6615 4234 6596 C 4282 6533 4264 6520 4169 6550 C 4085 6576 4074 6575 3964 6540 C 3913 6524 3865 6513 3858 6515 C 3851 6518 3834 6537 3822 6557 C 3803 6586 3800 6597 3808 6616 C 3816 6633 3815 6641 3804 6651 C 3777 6673 3768 6698 3780 6720 C 3795 6747 3811 6745 3855 6710 C 3875 6694 3897 6683 3904 6687 C 3998 6743 4021 6763 4014 6778 C 3987 6843 3930 7027 3932 7044 C 3937 7080 3971 7076 4006 7035 L 4037 6998 L 4059 7034 C 4084 7074 4088 7076 4114 7057 C 4130 7046 4130 7038 4119 6978 C 4108 6916 4108 6910 4129 6877 C 4157 6832 4206 6790 4231 6790 C 4247 6790 4248 6794 4240 6816 C 4224 6857 4228 6869 4263 6890 C 4305 6916 4306 6916 4341 6878 C 4413 6800 4490 6628 4495 6535 C 4496 6508 4498 6451 4499 6411 C 4500 6366 4504 6340 4509 6346 C 4523 6360 4557 6485 4575 6585 C 4624 6861 4686 7024 4812 7205 C 4872 7292 4998 7431 5110 7533 C 5194 7609 5357 7731 5416 7760 C 5432 7768 5456 7782 5470 7791 C 5516 7821 5702 7892 5784 7910 C 5888 7933 6066 7935 6154 7915 z M 5030 7833 C 5042 7818 5050 7785 5054 7733 C 5058 7690 5064 7647 5067 7637 C 5070 7624 5056 7604 5019 7570 C 4952 7509 4935 7517 4965 7595 C 4973 7614 4971 7613 4948 7593 C 4912 7559 4900 7564 4900 7612 L 4900 7654 L 4871 7622 C 4854 7605 4839 7590 4836 7590 C 4831 7590 4821 7623 4806 7693 C 4797 7733 4784 7719 4776 7660 C 4768 7599 4748 7587 4719 7624 C 4691 7660 4684 7657 4688 7610 C 4693 7565 4684 7561 4650 7590 C 4620 7616 4615 7610 4631 7566 C 4638 7546 4641 7528 4637 7524 C 4628 7514 4532 7597 4524 7622 C 4521 7634 4524 7683 4531 7732 C 4551 7865 4543 7862 4803 7858 C 5005 7855 5012 7854 5030 7833 z M 2720 7418 C 2817 7353 2865 7258 2827 7206 C 2809 7181 2788 7194 2744 7257 C 2723 7287 2704 7308 2702 7302 C 2699 7291 2736 7213 2769 7165 C 2809 7107 2783 7031 2727 7045 C 2695 7053 2644 7109 2622 7159 C 2602 7204 2600 7404 2618 7438 C 2635 7469 2649 7466 2720 7418 z M 6972 7433 C 6987 7395 6987 7234 6972 7184 C 6948 7101 6876 7030 6831 7045 C 6800 7054 6793 7122 6818 7163 C 6897 7290 6913 7356 6840 7252 C 6817 7218 6791 7190 6784 7190 C 6776 7190 6763 7201 6754 7215 C 6739 7237 6739 7247 6749 7282 C 6764 7332 6837 7407 6900 7437 C 6958 7465 6958 7465 6972 7433 z M 2965 7146 C 3060 7081 3150 7000 3150 6978 C 3150 6958 3120 6950 3043 6950 C 2982 6950 2979 6951 2958 6985 C 2932 7024 2915 7031 2925 6998 C 2972 6843 3001 6777 3059 6690 C 3095 6637 3097 6624 3070 6610 C 3040 6594 2947 6617 2899 6652 C 2875 6669 2848 6704 2828 6742 C 2796 6802 2795 6810 2796 6915 C 2797 7057 2836 7200 2874 7200 C 2880 7200 2921 7176 2965 7146 z M 6742 7172 C 6768 7129 6792 6995 6792 6905 C 6791 6777 6745 6678 6668 6639 C 6623 6616 6507 6601 6497 6617 C 6493 6622 6511 6659 6535 6698 C 6598 6798 6639 6898 6663 7008 C 6671 7043 6656 7034 6631 6989 L 6607 6948 L 6526 6954 C 6482 6957 6444 6960 6443 6960 C 6441 6960 6440 6967 6440 6975 C 6440 6984 6461 7011 6486 7036 C 6537 7085 6697 7200 6715 7200 C 6721 7200 6733 7187 6742 7172 z M 3443 6872 C 3503 6839 3560 6764 3560 6719 C 3560 6703 3557 6690 3552 6690 C 3548 6690 3486 6710 3415 6735 C 3344 6760 3282 6779 3277 6777 C 3272 6776 3323 6746 3390 6711 C 3502 6653 3512 6646 3495 6634 C 3485 6626 3460 6620 3441 6620 C 3421 6620 3381 6611 3352 6600 C 3260 6565 3246 6569 3155 6663 C 3064 6755 2996 6870 3019 6893 C 3033 6907 3258 6918 3338 6908 C 3367 6905 3414 6889 3443 6872 z M 6548 6904 C 6579 6895 6577 6857 6541 6795 C 6505 6733 6415 6633 6362 6596 L 6321 6568 L 6265 6589 C 6235 6600 6185 6613 6155 6616 C 6060 6627 6066 6641 6195 6710 C 6359 6797 6342 6799 6122 6718 C 6074 6701 6034 6692 6029 6697 C 6016 6710 6040 6775 6073 6816 C 6090 6837 6130 6865 6164 6881 C 6223 6909 6230 6910 6375 6910 C 6458 6910 6535 6907 6548 6904 z M 6224 6539 C 6308 6511 6421 6457 6464 6425 C 6474 6417 6480 6405 6477 6397 C 6469 6376 6285 6256 6197 6214 C 6062 6150 5922 6158 5833 6235 C 5782 6279 5763 6321 5779 6357 C 5788 6376 5796 6381 5813 6376 C 5852 6366 6086 6357 6116 6365 C 6142 6371 6143 6373 6125 6380 C 6114 6384 6080 6391 6050 6395 C 6001 6401 5917 6420 5868 6436 C 5841 6444 5846 6465 5885 6499 C 5950 6556 6024 6582 6095 6573 C 6117 6570 6175 6555 6224 6539 z M 3638 6546 C 3681 6524 3740 6471 3740 6454 C 3740 6447 3721 6436 3698 6429 C 3674 6423 3646 6414 3634 6410 C 3623 6406 3579 6396 3537 6390 C 3411 6369 3453 6356 3619 6364 C 3699 6368 3774 6372 3785 6373 C 3801 6375 3806 6368 3808 6341 C 3815 6271 3764 6217 3661 6186 C 3586 6164 3517 6166 3440 6194 C 3333 6231 3110 6374 3110 6404 C 3110 6432 3313 6530 3425 6555 C 3499 6572 3595 6568 3638 6546 z M 4156 6459 C 4193 6425 4186 6407 4124 6375 C 4064 6343 4065 6332 4127 6349 C 4181 6364 4198 6363 4204 6342 C 4212 6319 4185 6253 4157 6222 C 4126 6189 4094 6174 4024 6160 C 3972 6150 3954 6150 3909 6164 C 3824 6189 3824 6189 3860 6254 C 3888 6304 3892 6318 3888 6366 C 3883 6419 3885 6423 3916 6446 C 3962 6481 3995 6490 4068 6486 C 4117 6483 4137 6477 4156 6459 z M 5641 6463 L 5695 6435 L 5696 6385 C 5697 6302 5699 6295 5732 6246 C 5767 6192 5765 6189 5695 6169 C 5602 6142 5502 6160 5441 6215 C 5402 6251 5373 6317 5384 6346 C 5390 6363 5403 6363 5495 6344 C 5519 6340 5513 6345 5470 6370 C 5400 6410 5396 6414 5409 6437 C 5439 6494 5554 6506 5641 6463 z" stroke-linecap="round" />
</g>
		<g transform="matrix(0.13 0 0 -0.13 -0.19 -267.9)"  >
<path style="stroke: none; stroke-width: 1; stroke-dasharray: none; stroke-linecap: butt; stroke-dashoffset: 0; stroke-linejoin: miter; stroke-miterlimit: 4; fill: rgb(0,0,0); fill-rule: nonzero; opacity: 1;" vector-effect="non-scaling-stroke"  transform=" translate(-4793.55, -9944.22)" d="M 4772 9997 C 4756 9979 4730 9914 4730 9895 C 4730 9883 4743 9880 4790 9880 C 4864 9880 4871 9891 4839 9957 C 4814 10007 4791 10021 4772 9997 z" stroke-linecap="round" />
</g>
		<g transform="matrix(0.13 0 0 -0.13 120.99 -208.8)"  >
<path style="stroke: none; stroke-width: 1; stroke-dasharray: none; stroke-linecap: butt; stroke-dashoffset: 0; stroke-linejoin: miter; stroke-miterlimit: 4; fill: rgb(0,0,0); fill-rule: nonzero; opacity: 1;" vector-effect="non-scaling-stroke"  transform=" translate(-5702.46, -9500.96)" d="M 5779 9633 C 5770 9631 5755 9614 5745 9596 C 5735 9577 5704 9549 5675 9532 C 5625 9502 5590 9455 5590 9417 C 5590 9409 5613 9393 5645 9380 C 5698 9359 5702 9358 5719 9374 C 5742 9395 5770 9451 5764 9462 C 5761 9466 5748 9470 5734 9470 C 5713 9470 5710 9466 5715 9450 C 5723 9424 5694 9411 5674 9432 C 5653 9453 5666 9478 5712 9501 C 5739 9515 5756 9533 5767 9558 C 5775 9578 5791 9605 5803 9618 C 5824 9640 5818 9644 5779 9633 z" stroke-linecap="round" />
</g>
		<g transform="matrix(0.13 0 0 -0.13 80.02 -179.84)"  >
<path style="stroke: none; stroke-width: 1; stroke-dasharray: none; stroke-linecap: butt; stroke-dashoffset: 0; stroke-linejoin: miter; stroke-miterlimit: 4; fill: rgb(0,0,0); fill-rule: nonzero; opacity: 1;" vector-effect="non-scaling-stroke"  transform=" translate(-5395.18, -9283.71)" d="M 5465 9367 C 5454 9361 5423 9348 5395 9340 C 5354 9326 5342 9316 5323 9280 C 5294 9226 5294 9225 5328 9212 C 5393 9186 5406 9187 5439 9222 C 5456 9240 5470 9265 5470 9278 C 5470 9291 5475 9310 5481 9321 C 5486 9332 5490 9350 5488 9360 C 5485 9376 5482 9377 5465 9367 z M 5440 9296 C 5440 9270 5414 9229 5393 9224 C 5382 9221 5362 9224 5350 9230 C 5331 9240 5330 9244 5343 9263 C 5358 9288 5419 9322 5432 9314 C 5436 9311 5440 9303 5440 9296 z" stroke-linecap="round" />
</g>
		<g transform="matrix(0.13 0 0 -0.13 117.34 -175.22)"  >
<path style="stroke: none; stroke-width: 1; stroke-dasharray: none; stroke-linecap: butt; stroke-dashoffset: 0; stroke-linejoin: miter; stroke-miterlimit: 4; fill: rgb(0,0,0); fill-rule: nonzero; opacity: 1;" vector-effect="non-scaling-stroke"  transform=" translate(-5675.06, -9249.08)" d="M 5600 9331 C 5600 9325 5618 9311 5639 9300 C 5661 9289 5681 9276 5685 9270 C 5690 9262 5647 9228 5618 9218 C 5615 9216 5608 9203 5605 9188 C 5595 9150 5619 9151 5663 9190 C 5682 9206 5709 9224 5723 9229 C 5749 9239 5759 9263 5741 9274 C 5736 9277 5734 9288 5737 9299 C 5741 9314 5734 9318 5693 9323 C 5667 9327 5635 9332 5623 9336 C 5609 9340 5600 9338 5600 9331 z" stroke-linecap="round" />
</g>
		<g transform="matrix(0.13 0 0 -0.13 145.93 -179.2)"  >
<path style="stroke: none; stroke-width: 1; stroke-dasharray: none; stroke-linecap: butt; stroke-dashoffset: 0; stroke-linejoin: miter; stroke-miterlimit: 4; fill: rgb(0,0,0); fill-rule: nonzero; opacity: 1;" vector-effect="non-scaling-stroke"  transform=" translate(-5889.51, -9278.92)" d="M 5887 9294 C 5883 9290 5880 9280 5880 9271 C 5880 9260 5883 9259 5891 9267 C 5897 9273 5901 9283 5898 9290 C 5896 9296 5891 9298 5887 9294 z" stroke-linecap="round" />
</g>
		<g transform="matrix(0.13 0 0 -0.13 46.84 -161.66)"  >
<path style="stroke: none; stroke-width: 1; stroke-dasharray: none; stroke-linecap: butt; stroke-dashoffset: 0; stroke-linejoin: miter; stroke-miterlimit: 4; fill: rgb(0,0,0); fill-rule: nonzero; opacity: 1;" vector-effect="non-scaling-stroke"  transform=" translate(-5146.34, -9147.36)" d="M 5137 9151 C 5134 9139 5136 9130 5140 9130 C 5155 9130 5163 9151 5152 9162 C 5146 9168 5141 9164 5137 9151 z" stroke-linecap="round" />
</g>
		<g transform="matrix(0.13 0 0 -0.13 124.02 -152.16)"  >
<path style="stroke: none; stroke-width: 1; stroke-dasharray: none; stroke-linecap: butt; stroke-dashoffset: 0; stroke-linejoin: miter; stroke-miterlimit: 4; fill: rgb(0,0,0); fill-rule: nonzero; opacity: 1;" vector-effect="non-scaling-stroke"  transform=" translate(-5725.17, -9076.15)" d="M 5727 9113 C 5695 9110 5680 9105 5683 9097 C 5685 9090 5681 9073 5674 9058 C 5661 9033 5661 9031 5677 9037 C 5708 9048 5779 9094 5784 9108 C 5787 9114 5786 9119 5782 9118 C 5778 9117 5753 9115 5727 9113 z" stroke-linecap="round" />
</g>
		<g transform="matrix(0.13 0 0 -0.13 -122.89 -208.96)"  >
<path style="stroke: none; stroke-width: 1; stroke-dasharray: none; stroke-linecap: butt; stroke-dashoffset: 0; stroke-linejoin: miter; stroke-miterlimit: 4; fill: rgb(0,0,0); fill-rule: nonzero; opacity: 1;" vector-effect="non-scaling-stroke"  transform=" translate(-3873.33, -9502.16)" d="M 3776 9622 C 3788 9613 3807 9586 3820 9564 C 3832 9541 3862 9508 3886 9491 C 3934 9458 3938 9449 3915 9430 C 3895 9414 3870 9425 3870 9450 C 3870 9471 3837 9479 3825 9460 C 3816 9446 3860 9371 3881 9365 C 3891 9362 3920 9369 3947 9382 C 3988 9402 3994 9409 3991 9430 C 3985 9478 3960 9510 3910 9535 C 3882 9549 3860 9564 3860 9569 C 3860 9589 3801 9640 3778 9640 L 3755 9640 L 3776 9622 z" stroke-linecap="round" />
</g>
		<g transform="matrix(0.13 0 0 -0.13 -79.67 -179.61)"  >
<path style="stroke: none; stroke-width: 1; stroke-dasharray: none; stroke-linecap: butt; stroke-dashoffset: 0; stroke-linejoin: miter; stroke-miterlimit: 4; fill: rgb(0,0,0); fill-rule: nonzero; opacity: 1;" vector-effect="non-scaling-stroke"  transform=" translate(-4197.5, -9282.02)" d="M 4096 9371 C 4093 9366 4097 9343 4105 9320 C 4113 9297 4119 9276 4118 9272 C 4114 9260 4151 9212 4176 9195 C 4200 9180 4204 9180 4251 9201 C 4278 9214 4300 9226 4300 9228 C 4300 9230 4288 9254 4274 9281 C 4250 9323 4241 9331 4193 9346 C 4164 9355 4137 9367 4134 9371 C 4127 9383 4103 9382 4096 9371 z M 4211 9289 C 4246 9264 4250 9230 4218 9230 C 4189 9230 4176 9239 4161 9268 C 4138 9311 4165 9322 4211 9289 z" stroke-linecap="round" />
</g>
		<g transform="matrix(0.13 0 0 -0.13 -117.15 -175.2)"  >
<path style="stroke: none; stroke-width: 1; stroke-dasharray: none; stroke-linecap: butt; stroke-dashoffset: 0; stroke-linejoin: miter; stroke-miterlimit: 4; fill: rgb(0,0,0); fill-rule: nonzero; opacity: 1;" vector-effect="non-scaling-stroke"  transform=" translate(-3916.37, -9248.96)" d="M 3940 9330 C 3926 9326 3900 9322 3882 9321 C 3856 9320 3849 9316 3851 9303 C 3852 9293 3849 9276 3845 9266 C 3839 9251 3841 9243 3855 9236 C 3865 9230 3893 9210 3917 9193 C 3964 9157 3996 9149 3986 9176 C 3983 9185 3980 9195 3980 9199 C 3980 9204 3962 9219 3940 9234 C 3918 9248 3900 9265 3900 9270 C 3900 9275 3920 9288 3945 9299 C 4009 9327 4005 9351 3940 9330 z" stroke-linecap="round" />
</g>
		<g transform="matrix(0.13 0 0 -0.13 -146.09 -180.06)"  >
<path style="stroke: none; stroke-width: 1; stroke-dasharray: none; stroke-linecap: butt; stroke-dashoffset: 0; stroke-linejoin: miter; stroke-miterlimit: 4; fill: rgb(0,0,0); fill-rule: nonzero; opacity: 1;" vector-effect="non-scaling-stroke"  transform=" translate(-3699.36, -9285.38)" d="M 3686 9288 C 3694 9259 3696 9257 3709 9265 C 3717 9269 3717 9277 3710 9291 C 3695 9318 3677 9315 3686 9288 z" stroke-linecap="round" />
</g>
		<g transform="matrix(0.13 0 0 -0.13 -47.18 -163.58)"  >
<path style="stroke: none; stroke-width: 1; stroke-dasharray: none; stroke-linecap: butt; stroke-dashoffset: 0; stroke-linejoin: miter; stroke-miterlimit: 4; fill: rgb(0,0,0); fill-rule: nonzero; opacity: 1;" vector-effect="non-scaling-stroke"  transform=" translate(-4441.12, -9161.82)" d="M 4420 9176 C 4420 9140 4446 9102 4461 9117 C 4469 9125 4436 9210 4425 9210 C 4422 9210 4420 9195 4420 9176 z" stroke-linecap="round" />
</g>
		<g transform="matrix(0.13 0 0 -0.13 -124.39 -151.28)"  >
<path style="stroke: none; stroke-width: 1; stroke-dasharray: none; stroke-linecap: butt; stroke-dashoffset: 0; stroke-linejoin: miter; stroke-miterlimit: 4; fill: rgb(0,0,0); fill-rule: nonzero; opacity: 1;" vector-effect="non-scaling-stroke"  transform=" translate(-3862.1, -9069.52)" d="M 3800 9106 C 3800 9100 3912 9030 3922 9030 C 3927 9030 3923 9041 3915 9054 C 3906 9067 3901 9084 3902 9091 C 3904 9101 3891 9106 3853 9108 C 3824 9110 3800 9109 3800 9106 z" stroke-linecap="round" />
</g>
		<g transform="matrix(0.13 0 0 -0.13 -373.88 -141.5)"  >
<path style="stroke: none; stroke-width: 1; stroke-dasharray: none; stroke-linecap: butt; stroke-dashoffset: 0; stroke-linejoin: miter; stroke-miterlimit: 4; fill: rgb(0,0,0); fill-rule: nonzero; opacity: 1;" vector-effect="non-scaling-stroke"  transform=" translate(-1990.88, -8996.18)" d="M 1919 9071 C 1867 9019 1884 8927 1950 8900 C 2010 8875 2072 8905 2089 8966 C 2118 9070 1994 9146 1919 9071 z" stroke-linecap="round" />
</g>
		<g transform="matrix(0.13 0 0 -0.13 373.93 -141.38)"  >
<path style="stroke: none; stroke-width: 1; stroke-dasharray: none; stroke-linecap: butt; stroke-dashoffset: 0; stroke-linejoin: miter; stroke-miterlimit: 4; fill: rgb(0,0,0); fill-rule: nonzero; opacity: 1;" vector-effect="non-scaling-stroke"  transform=" translate(-7599.5, -8995.31)" d="M 7530 9071 C 7494 9035 7484 8998 7501 8959 C 7515 8923 7563 8890 7600 8890 C 7669 8890 7725 8969 7700 9031 C 7670 9103 7582 9124 7530 9071 z" stroke-linecap="round" />
</g>
		<g transform="matrix(0.13 0 0 -0.13 -403.88 -11.91)"  >
<path style="stroke: none; stroke-width: 1; stroke-dasharray: none; stroke-linecap: butt; stroke-dashoffset: 0; stroke-linejoin: miter; stroke-miterlimit: 4; fill: rgb(0,0,0); fill-rule: nonzero; opacity: 1;" vector-effect="non-scaling-stroke"  transform=" translate(-1765.92, -8024.25)" d="M 1493 8258 C 1438 8197 1442 8175 1514 8137 C 1549 8119 1583 8115 1757 8107 C 1886 8100 1960 8093 1963 8086 C 1965 8080 1965 8049 1962 8018 C 1958 7963 1956 7960 1931 7960 C 1886 7960 1842 7994 1838 8032 C 1835 8060 1831 8065 1810 8063 C 1796 8062 1773 8057 1758 8051 C 1732 8041 1730 8036 1730 7986 C 1730 7905 1726 7900 1665 7900 C 1622 7900 1605 7905 1581 7926 C 1551 7951 1550 7955 1550 8027 L 1550 8102 L 1513 8095 C 1447 8083 1440 8075 1439 8012 C 1437 7928 1440 7908 1458 7877 C 1491 7822 1595 7770 1674 7770 C 1719 7770 1830 7817 1830 7837 C 1830 7857 1845 7859 1886 7845 C 1907 7837 1960 7831 2003 7830 L 2080 7830 L 2081 7868 C 2081 7888 2085 7984 2090 8080 C 2094 8176 2095 8259 2090 8263 C 2086 8268 2057 8264 2026 8255 L 1970 8239 L 1970 8197 C 1970 8159 1956 8118 1948 8130 C 1946 8133 1937 8155 1929 8180 L 1913 8225 L 1849 8231 C 1814 8235 1747 8238 1700 8239 C 1639 8240 1603 8246 1571 8260 C 1517 8285 1518 8285 1493 8258 z" stroke-linecap="round" />
</g>
		<g transform="matrix(0.13 0 0 -0.13 403.52 21.42)"  >
<path style="stroke: none; stroke-width: 1; stroke-dasharray: none; stroke-linecap: butt; stroke-dashoffset: 0; stroke-linejoin: miter; stroke-miterlimit: 4; fill: rgb(0,0,0); fill-rule: nonzero; opacity: 1;" vector-effect="non-scaling-stroke"  transform=" translate(-7821.39, -7774.31)" d="M 7505 7935 C 7501 7886 7501 7845 7507 7839 C 7517 7829 7583 7844 7624 7867 C 7649 7881 7673 7882 7789 7875 C 8016 7863 7991 7859 8009 7908 C 8017 7931 8028 7950 8032 7950 C 8043 7950 8042 7764 8031 7716 C 8026 7695 8017 7673 8011 7667 C 8003 7659 7936 7660 7778 7669 C 7655 7676 7541 7684 7524 7687 C 7493 7692 7493 7692 7486 7637 C 7483 7606 7482 7575 7485 7568 C 7489 7557 7545 7551 7733 7540 C 8027 7522 8038 7522 8074 7541 C 8135 7571 8144 7596 8154 7771 C 8165 7951 8167 7945 8090 7974 C 8059 7986 7995 7995 7885 8001 C 7797 8005 7677 8012 7618 8016 L 7512 8022 L 7505 7935 z" stroke-linecap="round" />
</g>
		<g transform="matrix(0.13 0 0 -0.13 -397.15 73.6)"  >
<path style="stroke: none; stroke-width: 1; stroke-dasharray: none; stroke-linecap: butt; stroke-dashoffset: 0; stroke-linejoin: miter; stroke-miterlimit: 4; fill: rgb(0,0,0); fill-rule: nonzero; opacity: 1;" vector-effect="non-scaling-stroke"  transform=" translate(-1816.34, -7382.96)" d="M 2015 7685 C 1975 7662 1975 7661 1978 7606 C 1980 7575 1977 7550 1973 7550 C 1968 7550 1954 7568 1940 7591 L 1915 7632 L 1850 7625 C 1814 7622 1767 7614 1745 7608 C 1695 7595 1585 7593 1542 7603 C 1511 7611 1509 7610 1489 7565 C 1462 7503 1466 7488 1520 7472 C 1579 7454 1709 7463 1860 7494 C 1959 7515 1977 7516 1986 7504 C 1998 7488 2015 7362 2007 7353 C 1998 7345 1928 7330 1895 7330 C 1869 7330 1805 7362 1749 7402 C 1736 7411 1724 7407 1686 7380 C 1651 7357 1641 7345 1649 7337 C 1667 7319 1662 7307 1612 7253 C 1585 7225 1555 7185 1544 7165 L 1525 7129 L 1565 7095 C 1587 7076 1610 7061 1617 7060 C 1623 7060 1638 7076 1650 7095 C 1661 7114 1694 7150 1722 7175 C 1775 7223 1801 7229 1859 7209 C 1884 7200 1914 7202 2008 7219 C 2160 7247 2160 7247 2160 7274 C 2160 7295 2128 7485 2097 7640 C 2083 7715 2074 7720 2015 7685 z" stroke-linecap="round" />
</g>
		<g transform="matrix(0.13 0 0 -0.13 389.55 99.34)"  >
<path style="stroke: none; stroke-width: 1; stroke-dasharray: none; stroke-linecap: butt; stroke-dashoffset: 0; stroke-linejoin: miter; stroke-miterlimit: 4; fill: rgb(0,0,0); fill-rule: nonzero; opacity: 1;" vector-effect="non-scaling-stroke"  transform=" translate(-7716.66, -7189.9)" d="M 7465 7438 C 7459 7420 7412 7244 7385 7136 C 7372 7086 7365 7041 7369 7037 C 7374 7033 7403 7030 7435 7032 C 7491 7035 7493 7036 7504 7070 C 7519 7117 7534 7114 7538 7065 C 7540 7043 7545 7021 7549 7017 C 7554 7013 7589 7009 7628 7008 C 7736 7007 7765 7035 7801 7178 C 7813 7227 7816 7230 7844 7230 C 7889 7230 7940 7196 7940 7166 C 7940 7152 7931 7101 7919 7050 C 7908 7000 7901 6953 7904 6945 C 7910 6929 7975 6924 7997 6938 C 8011 6947 8043 7047 8060 7135 C 8084 7260 8031 7320 7855 7364 C 7795 7379 7743 7387 7739 7383 C 7734 7378 7721 7339 7710 7297 C 7699 7254 7682 7201 7674 7180 C 7658 7141 7656 7140 7611 7140 C 7585 7140 7556 7146 7546 7153 C 7528 7166 7528 7172 7559 7289 C 7576 7357 7590 7415 7590 7420 C 7590 7428 7513 7450 7485 7450 C 7477 7450 7467 7444 7465 7438 z" stroke-linecap="round" />
</g>
		<g transform="matrix(0.13 0 0 -0.13 -369.44 170.03)"  >
<path style="stroke: none; stroke-width: 1; stroke-dasharray: none; stroke-linecap: butt; stroke-dashoffset: 0; stroke-linejoin: miter; stroke-miterlimit: 4; fill: rgb(0,0,0); fill-rule: nonzero; opacity: 1;" vector-effect="non-scaling-stroke"  transform=" translate(-2024.22, -6659.72)" d="M 2184 6971 C 2157 6950 2126 6928 2114 6922 C 2074 6901 1913 6880 1788 6880 L 1661 6880 L 1655 6847 C 1651 6828 1650 6800 1652 6784 L 1655 6755 L 1778 6752 C 1918 6749 1926 6743 1858 6687 L 1816 6652 L 1844 6587 C 1859 6551 1878 6519 1886 6516 C 1906 6508 1904 6499 1871 6465 C 1842 6433 1820 6398 1820 6382 C 1820 6372 1903 6310 1917 6310 C 1921 6310 1952 6344 1984 6385 C 2044 6462 2202 6619 2237 6639 C 2255 6648 2260 6646 2274 6625 L 2290 6601 L 2340 6624 C 2368 6637 2394 6650 2397 6653 C 2402 6658 2364 6747 2284 6918 C 2265 6958 2250 6995 2250 7001 C 2250 7018 2233 7010 2184 6971 z M 2218 6755 C 2254 6680 2243 6654 2199 6710 C 2186 6726 2171 6740 2165 6740 C 2160 6740 2121 6711 2080 6675 C 2039 6640 1999 6611 1992 6610 C 1985 6610 1966 6638 1950 6673 C 1916 6747 1920 6754 2008 6764 C 2039 6768 2085 6777 2110 6785 C 2184 6808 2194 6805 2218 6755 z" stroke-linecap="round" />
</g>
		<g transform="matrix(0.13 0 0 -0.13 361.51 160.93)"  >
<path style="stroke: none; stroke-width: 1; stroke-dasharray: none; stroke-linecap: butt; stroke-dashoffset: 0; stroke-linejoin: miter; stroke-miterlimit: 4; fill: rgb(0,0,0); fill-rule: nonzero; opacity: 1;" vector-effect="non-scaling-stroke"  transform=" translate(-7506.3, -6728)" d="M 7305 6918 C 7249 6793 7190 6665 7180 6647 C 7171 6633 7174 6628 7195 6620 C 7210 6614 7240 6610 7263 6610 L 7305 6610 L 7349 6705 C 7373 6757 7397 6800 7402 6800 C 7407 6800 7408 6775 7405 6743 L 7398 6685 L 7535 6620 C 7636 6572 7682 6545 7708 6516 L 7743 6476 L 7789 6502 C 7853 6537 7853 6558 7792 6617 C 7766 6644 7733 6670 7719 6677 C 7706 6684 7633 6718 7558 6754 C 7408 6824 7404 6829 7435 6891 C 7444 6907 7448 6925 7445 6930 C 7437 6944 7365 6980 7347 6980 C 7339 6980 7320 6952 7305 6918 z" stroke-linecap="round" />
</g>
		<g transform="matrix(0.13 0 0 -0.13 337.51 214.57)"  >
<path style="stroke: none; stroke-width: 1; stroke-dasharray: none; stroke-linecap: butt; stroke-dashoffset: 0; stroke-linejoin: miter; stroke-miterlimit: 4; fill: rgb(0,0,0); fill-rule: nonzero; opacity: 1;" vector-effect="non-scaling-stroke"  transform=" translate(-7326.35, -6325.67)" d="M 7072 6473 C 7044 6431 7023 6393 7026 6389 C 7035 6374 7131 6357 7142 6368 C 7156 6382 7160 6380 7321 6274 C 7436 6199 7483 6158 7509 6113 C 7517 6098 7522 6098 7559 6110 C 7628 6132 7636 6142 7620 6180 C 7596 6238 7518 6303 7323 6428 C 7218 6495 7130 6550 7127 6550 C 7125 6550 7100 6515 7072 6473 z" stroke-linecap="round" />
</g>
		<g transform="matrix(0.13 0 0 -0.13 -324.93 240.66)"  >
<path style="stroke: none; stroke-width: 1; stroke-dasharray: none; stroke-linecap: butt; stroke-dashoffset: 0; stroke-linejoin: miter; stroke-miterlimit: 4; fill: rgb(0,0,0); fill-rule: nonzero; opacity: 1;" vector-effect="non-scaling-stroke"  transform=" translate(-2358, -6130)" d="M 2453 6458 C 2437 6434 2420 6410 2417 6403 C 2413 6397 2434 6360 2464 6322 C 2558 6201 2557 6190 2462 6211 C 2431 6218 2349 6223 2280 6223 C 2137 6223 2075 6205 2005 6146 L 1966 6113 L 1984 6085 C 2031 6013 2224 5760 2232 5760 C 2243 5760 2320 5811 2320 5819 C 2320 5822 2282 5876 2235 5939 C 2188 6001 2150 6058 2150 6065 C 2150 6102 2355 6108 2492 6074 C 2521 6067 2521 6067 2535 6153 C 2538 6173 2545 6190 2551 6190 C 2556 6190 2579 6163 2603 6131 C 2626 6098 2648 6071 2652 6071 C 2664 6070 2750 6133 2750 6143 C 2750 6152 2493 6500 2486 6500 C 2485 6500 2470 6481 2453 6458 z" stroke-linecap="round" />
</g>
		<g transform="matrix(0.13 0 0 -0.13 301.73 264.65)"  >
<path style="stroke: none; stroke-width: 1; stroke-dasharray: none; stroke-linecap: butt; stroke-dashoffset: 0; stroke-linejoin: miter; stroke-miterlimit: 4; fill: rgb(0,0,0); fill-rule: nonzero; opacity: 1;" vector-effect="non-scaling-stroke"  transform=" translate(-7057.98, -5950.06)" d="M 6855 6184 C 6796 6115 6747 6052 6746 6043 C 6745 6034 6765 6019 6797 6005 L 6849 5981 L 6921 6063 C 7042 6203 7045 6205 7048 6188 C 7050 6179 7044 6155 7035 6133 L 7019 6095 L 7072 6050 C 7101 6026 7151 5980 7183 5948 C 7235 5895 7240 5887 7240 5846 C 7240 5804 7234 5794 7174 5725 C 7137 5683 7109 5647 7112 5645 C 7114 5643 7138 5632 7165 5620 L 7215 5599 L 7267 5657 C 7330 5727 7370 5801 7370 5849 C 7370 5898 7341 5975 7310 6009 C 7279 6043 7001 6288 6979 6300 C 6967 6307 6941 6283 6855 6184 z" stroke-linecap="round" />
</g>
		<g transform="matrix(0.13 0 0 -0.13 -280.41 283.23)"  >
<path style="stroke: none; stroke-width: 1; stroke-dasharray: none; stroke-linecap: butt; stroke-dashoffset: 0; stroke-linejoin: miter; stroke-miterlimit: 4; fill: rgb(0,0,0); fill-rule: nonzero; opacity: 1;" vector-effect="non-scaling-stroke"  transform=" translate(-2691.95, -5810.71)" d="M 2785 6038 C 2775 6014 2768 5984 2769 5971 C 2772 5936 2546 5709 2478 5680 C 2425 5657 2421 5646 2441 5577 C 2451 5540 2453 5538 2486 5544 C 2504 5548 2537 5560 2559 5572 C 2596 5592 2750 5737 2889 5883 L 2954 5951 L 2890 6015 C 2854 6051 2821 6080 2814 6080 C 2808 6080 2795 6061 2785 6038 z" stroke-linecap="round" />
</g>
		<g transform="matrix(0.13 0 0 -0.13 -256.2 325.46)"  >
<path style="stroke: none; stroke-width: 1; stroke-dasharray: none; stroke-linecap: butt; stroke-dashoffset: 0; stroke-linejoin: miter; stroke-miterlimit: 4; fill: rgb(0,0,0); fill-rule: nonzero; opacity: 1;" vector-effect="non-scaling-stroke"  transform=" translate(-2873.5, -5494)" d="M 2906 5678 C 2832 5577 2764 5485 2755 5473 C 2746 5460 2731 5450 2721 5450 C 2711 5450 2681 5433 2655 5413 L 2607 5377 L 2631 5357 C 2727 5281 2863 5186 2905 5165 C 2933 5152 2976 5138 3003 5134 L 3050 5128 L 3050 5179 C 3050 5247 3052 5243 2998 5257 C 2947 5270 2886 5305 2857 5338 C 2833 5364 2829 5358 3000 5585 C 3077 5687 3140 5777 3140 5785 C 3140 5796 3059 5860 3045 5860 C 3042 5860 2980 5778 2906 5678 z" stroke-linecap="round" />
</g>
		<g transform="matrix(0.13 0 0 -0.13 266.65 303.33)"  >
<path style="stroke: none; stroke-width: 1; stroke-dasharray: none; stroke-linecap: butt; stroke-dashoffset: 0; stroke-linejoin: miter; stroke-miterlimit: 4; fill: rgb(0,0,0); fill-rule: nonzero; opacity: 1;" vector-effect="non-scaling-stroke"  transform=" translate(-6794.85, -5660)" d="M 6765 5701 C 6711 5652 6664 5607 6662 5601 C 6657 5587 6698 5530 6713 5530 C 6726 5530 6922 5696 6928 5711 C 6931 5719 6879 5790 6870 5790 C 6867 5789 6820 5749 6765 5701 z" stroke-linecap="round" />
</g>
		<g transform="matrix(0.13 0 0 -0.13 207.92 342.81)"  >
<path style="stroke: none; stroke-width: 1; stroke-dasharray: none; stroke-linecap: butt; stroke-dashoffset: 0; stroke-linejoin: miter; stroke-miterlimit: 4; fill: rgb(0,0,0); fill-rule: nonzero; opacity: 1;" vector-effect="non-scaling-stroke"  transform=" translate(-6354.41, -5363.87)" d="M 6323 5698 C 6283 5675 6250 5651 6250 5644 C 6250 5629 6321 5564 6347 5556 C 6357 5553 6403 5488 6450 5409 C 6497 5332 6541 5266 6549 5262 C 6556 5259 6578 5263 6597 5269 C 6636 5283 6649 5278 6631 5256 C 6611 5233 6424 5130 6401 5130 C 6378 5130 6361 5155 6206 5413 C 6157 5494 6113 5560 6108 5560 C 6090 5560 6019 5519 6014 5505 C 6006 5486 6258 5064 6301 5022 C 6357 4967 6392 4974 6556 5074 L 6695 5158 L 6692 5204 C 6690 5229 6684 5263 6677 5278 C 6660 5317 6407 5740 6400 5740 C 6397 5740 6362 5721 6323 5698 z" stroke-linecap="round" />
</g>
		<g transform="matrix(0.13 0 0 -0.13 -184.13 356.66)"  >
<path style="stroke: none; stroke-width: 1; stroke-dasharray: none; stroke-linecap: butt; stroke-dashoffset: 0; stroke-linejoin: miter; stroke-miterlimit: 4; fill: rgb(0,0,0); fill-rule: nonzero; opacity: 1;" vector-effect="non-scaling-stroke"  transform=" translate(-3414, -5260)" d="M 3445 5531 C 3442 5510 3441 5477 3445 5459 C 3450 5430 3441 5404 3378 5283 C 3302 5136 3284 5109 3236 5074 L 3208 5054 L 3240 5002 C 3257 4973 3278 4950 3286 4950 C 3293 4950 3325 4976 3357 5008 C 3406 5056 3431 5096 3518 5266 C 3574 5377 3620 5474 3620 5481 C 3620 5496 3492 5570 3467 5570 C 3457 5570 3449 5556 3445 5531 z" stroke-linecap="round" />
</g>
		<g transform="matrix(0.13 0 0 -0.13 148.51 371.39)"  >
<path style="stroke: none; stroke-width: 1; stroke-dasharray: none; stroke-linecap: butt; stroke-dashoffset: 0; stroke-linejoin: miter; stroke-miterlimit: 4; fill: rgb(0,0,0); fill-rule: nonzero; opacity: 1;" vector-effect="non-scaling-stroke"  transform=" translate(-5908.81, -5149.49)" d="M 5805 5425 C 5755 5404 5726 5386 5728 5378 C 5734 5356 5792 5301 5813 5298 C 5826 5296 5837 5283 5843 5265 C 5848 5249 5875 5181 5903 5115 C 5941 5025 5955 4977 5959 4925 L 5965 4855 L 6015 4848 C 6092 4836 6093 4837 6088 4938 C 6083 5020 6077 5037 5993 5239 C 5944 5357 5900 5455 5894 5456 C 5889 5458 5849 5444 5805 5425 z" stroke-linecap="round" />
</g>
		<g transform="matrix(0.13 0 0 -0.13 -128 385.3)"  >
<path style="stroke: none; stroke-width: 1; stroke-dasharray: none; stroke-linecap: butt; stroke-dashoffset: 0; stroke-linejoin: miter; stroke-miterlimit: 4; fill: rgb(0,0,0); fill-rule: nonzero; opacity: 1;" vector-effect="non-scaling-stroke"  transform=" translate(-3835, -5045.16)" d="M 3789 5403 C 3780 5276 3777 5262 3743 5200 C 3700 5120 3648 5050 3570 4966 C 3537 4931 3510 4898 3510 4893 C 3510 4888 3528 4863 3551 4839 L 3592 4795 L 3648 4855 C 3679 4888 3717 4930 3731 4949 C 3764 4991 3780 4983 3780 4922 C 3780 4896 3784 4870 3788 4864 C 3797 4850 3887 4820 3921 4820 C 3947 4820 3949 4817 3960 4750 C 3972 4680 3972 4680 4003 4681 C 4050 4681 4105 4703 4103 4720 C 4102 4728 4095 4773 4086 4820 C 4077 4867 4067 4967 4063 5043 C 4056 5190 4054 5181 4109 5184 C 4128 5185 4135 5194 4146 5230 C 4154 5255 4160 5280 4160 5286 C 4160 5292 4094 5319 4013 5344 C 3931 5370 3852 5396 3836 5401 C 3801 5412 3790 5412 3789 5403 z M 4012 5209 C 4050 5193 4037 5180 3984 5180 L 3940 5180 L 3940 5070 C 3940 4982 3937 4958 3925 4954 C 3905 4946 3780 4989 3780 5004 C 3780 5011 3793 5034 3809 5056 C 3825 5077 3852 5124 3871 5160 C 3889 5196 3908 5228 3913 5231 C 3923 5238 3964 5229 4012 5209 z" stroke-linecap="round" />
</g>
		<g transform="matrix(0.13 0 0 -0.13 95.77 392.55)"  >
<path style="stroke: none; stroke-width: 1; stroke-dasharray: none; stroke-linecap: butt; stroke-dashoffset: 0; stroke-linejoin: miter; stroke-miterlimit: 4; fill: rgb(0,0,0); fill-rule: nonzero; opacity: 1;" vector-effect="non-scaling-stroke"  transform=" translate(-5513.31, -4990.85)" d="M 5547 5335 C 5504 5322 5431 5304 5385 5295 C 5339 5285 5296 5274 5290 5270 C 5282 5265 5290 5245 5315 5206 C 5343 5163 5356 5150 5368 5155 C 5411 5171 5622 5221 5627 5216 C 5636 5208 5601 5172 5579 5165 C 5554 5157 5555 5142 5586 5010 C 5628 4831 5607 4787 5463 4756 C 5417 4746 5378 4734 5375 4729 C 5368 4718 5418 4630 5431 4630 C 5436 4630 5483 4642 5535 4656 C 5649 4688 5700 4726 5724 4797 C 5751 4875 5745 4931 5690 5125 C 5674 5180 5656 5252 5649 5285 C 5642 5318 5634 5348 5631 5351 C 5628 5354 5590 5347 5547 5335 z" stroke-linecap="round" />
</g>
		<g transform="matrix(0.13 0 0 -0.13 -20.75 403.11)"  >
<path style="stroke: none; stroke-width: 1; stroke-dasharray: none; stroke-linecap: butt; stroke-dashoffset: 0; stroke-linejoin: miter; stroke-miterlimit: 4; fill: rgb(0,0,0); fill-rule: nonzero; opacity: 1;" vector-effect="non-scaling-stroke"  transform=" translate(-4639.38, -4911.63)" d="M 4333 5229 C 4337 5216 4343 5188 4346 5167 C 4353 5129 4360 5124 4423 5118 C 4463 5114 4461 5098 4420 5087 C 4377 5076 4361 5064 4361 5042 C 4362 5033 4358 4967 4353 4895 C 4346 4798 4338 4753 4322 4717 L 4300 4668 L 4323 4649 C 4354 4622 4399 4598 4408 4604 C 4413 4607 4429 4634 4444 4664 C 4474 4723 4488 4834 4489 5016 C 4490 5143 4516 5146 4605 5030 C 4675 4939 4710 4839 4734 4660 L 4746 4575 L 4807 4572 C 4882 4568 4876 4555 4885 4755 C 4889 4832 4895 4938 4898 4990 L 4905 5085 L 4940 5090 C 4975 5095 4975 5096 4978 5149 C 4980 5179 4978 5206 4973 5211 C 4961 5222 4787 5226 4784 5215 C 4783 5209 4779 5175 4775 5138 C 4771 5100 4764 5070 4759 5070 C 4753 5070 4719 5101 4682 5138 C 4594 5226 4567 5239 4434 5247 L 4327 5253 L 4333 5229 z" stroke-linecap="round" />
</g>
</g>
</g>
</svg>